/* XPM */
static char *_43d8bf81a7e4c24e2add28ccef0e95dtRlEU8iIlNQXWZi1[] = {
/* columns rows colors chars-per-pixel */
"50 50 141 2 ",
"   c #2F2F2E",
".  c #34352F",
"X  c #343433",
"o  c #3B3B3A",
"O  c #46342D",
"+  c #4C352D",
"@  c #53372C",
"#  c #57382C",
"$  c #5B392B",
"%  c #4D3830",
"&  c #513A30",
"*  c #5D3E31",
"=  c #653C2A",
"-  c #6D3F29",
";  c #444935",
":  c #484E36",
">  c #4F5539",
",  c #555C3B",
"<  c #6F402A",
"1  c #7D4427",
"2  c #744128",
"3  c #674232",
"4  c #7F4D33",
"5  c #6F5638",
"6  c #5D653F",
"7  c #444443",
"8  c #474847",
"9  c #484847",
"0  c #4C4D4C",
"q  c #595E47",
"w  c #555554",
"e  c #7C594D",
"r  c #636C41",
"t  c #606748",
"y  c #6B7544",
"u  c #6E7846",
"i  c #717C49",
"p  c #73635E",
"a  c #656565",
"s  c #6B6A6A",
"d  c #747474",
"f  c #7E7673",
"g  c #7F7F7E",
"h  c #9D4F1D",
"j  c #854726",
"k  c #8C4A25",
"l  c #894A28",
"z  c #924C23",
"x  c #984E22",
"c  c #914D28",
"v  c #9D5021",
"b  c #9E552A",
"n  c #804E34",
"m  c #875734",
"M  c #995836",
"N  c #9E5C38",
"B  c #A65627",
"V  c #AA5A2A",
"C  c #A15E39",
"Z  c #806A3B",
"A  c #B2602E",
"S  c #A66039",
"D  c #AB633A",
"F  c #B86432",
"G  c #BE6A37",
"H  c #B0663C",
"J  c #B86738",
"K  c #B6693D",
"L  c #BC6B3D",
"P  c #C16B36",
"I  c #C36E3C",
"U  c #C7713E",
"Y  c #CB723C",
"T  c #D6783E",
"R  c #835F53",
"E  c #837B44",
"W  c #907343",
"Q  c #9E7643",
"!  c #8E6D62",
"~  c #94766B",
"^  c #A47564",
"/  c #A67E71",
"(  c #CF7540",
")  c #D27640",
"_  c #D67941",
"`  c #6C844B",
"'  c #79854B",
"]  c #7D894E",
"[  c #92884C",
"{  c #879553",
"}  c #8C9A55",
"|  c #91A057",
" . c #92A258",
".. c #9BAB5D",
"X. c #A0B05F",
"o. c #8C9372",
"O. c #B2816C",
"+. c #A4B561",
"@. c #A7B863",
"#. c #AABB64",
"$. c #A1AC7B",
"%. c #D1835D",
"&. c #D28662",
"*. c #D09279",
"=. c #66A785",
"-. c #6BA384",
";. c #64A887",
":. c #63A889",
">. c #8A8D82",
",. c #898989",
"<. c #929292",
"1. c #9E9E9D",
"2. c #A4A4A3",
"3. c gray67",
"4. c gray70",
"5. c #B9B9B9",
"6. c #DF9F86",
"7. c #D9A48F",
"8. c #DDAA96",
"9. c #E3AF9B",
"0. c #C5AAA1",
"q. c #D7AFA1",
"w. c #E4B4A2",
"e. c #A6D395",
"r. c #A5D69D",
"t. c #A3DAA5",
"y. c #A0DDAC",
"u. c #C0C0C0",
"i. c #CBCBCB",
"p. c #D4D4D4",
"a. c #DDDDDC",
"s. c #EFDAD3",
"d. c #F3DFD9",
"f. c #C8F7F5",
"g. c #C5F7FA",
"h. c #C2F8FF",
"j. c #E2E2E2",
"k. c #EEEEEE",
"l. c #F4F4F4",
"z. c #FDF8F7",
"x. c #FFFEFE",
/* pixels */
"y.y.y.y.y.y.y.y.y.y.y.y.y.y.y.y.y.y.y.y.y.y.y.y.y.y.y.y.y.y.y.y.y.y.y.y.y.y.y.y.y.y.y.y.y.y.y.y.y.y.",
"y.y.y.y.y.y.y.y.y.y.y.y.y.y.y.y.y.y.y.y.y.y.y.y.y.y.y.y.y.y.y.y.y.y.y.y.y.y.y.y.y.y.y.y.y.y.y.y.y.y.",
"y.y.y.y.y.y.y.y.y.y.y.y.y.y.y.y.y.y.y.y.y.y.y.y.y.y.y.y.y.y.y.y.y.y.y.y.y.y.y.y.y.y.:.y.y.y.y.y.y.y.",
"y.y.y.y.y.y.y.y.y.y.y.y.=.y.y.y.y.y.y.y.y.y.y.y.y.:.y.:.y.y.y.y.y.y.y.y.y.y.y.y.y.:.y.y.y.y.y.y.y.y.",
"y.y.y.y.y.y.y.y.y.y.y.=.y.y.y.y.y.y.y.y.y.y.y.y.y.y.:.y.y.y.y.y.y.y.y.y.y.y.y.y.y.=.y.y.y.y.y.y.y.y.",
"y.y.y.y.y.y.y.y.y.y.y.:.y.y.y.y.y.y.y.y.y.y.y.y.y.y.y.y.y.y.y.y.y.y.:.y.y.y.y.y.y.y.y.y.y.y.y.y.y.y.",
"y.y.y.y.:.y.y.y.y.y.y.y.y.y.y.y.y.y.y.y.y.y.y.y.y.y.y.y.y.y.y.y.y.y.y.:.y . X . . @.y.y.y.y.y.y.y.y.",
"y.y.y.y.y.:.y.y.y.y.y.y.y.y.y.y.y.y.y.y.y.y.y.y.y.y.y.y.y.y.y.y.y.y.y.;.y         @.y.y.y.y.y.y.y.y.",
"y.y.y.y.y.;.y.y.y.y.:.y.y.y.y.y.y.y.y.y.y.y.y.r.{ { { { { { { y.y.y.y.y.y   % D S [ { { y.y.y.y.y.y.",
"y.y.y.y.y.y.y.y.y.:.y.y.y.y.y.y.y.y.y.y.y.y.y.+.              t.y.y.y.y.y   * ) _ 4   ; y.y.y.y.y.:.",
"y.y.y.y.y.y.y.y.y.=.y.y.y.y.y.y.y.y.y.:.y.:.y.X.              y.y.y.y.y.y   * T _ 4   ; y.y.y.y.y.y.",
"y.y.y.y.y.y.y.y.y.y.y.y.y.y.y.y.y.y.y.y.:.y.y.+.    j x V ( ( 5 : u y.y.y   s z.z.8.( ( : ; +.y.y.y.",
"y.y.y.y.y.y.y.y.y.y.y.y.y.y.y.y.y.y.y.y.y.y.y.+.    j v V _ _ 3   r y.y.y   s x.x.9._ (     ..y.y.y.",
"y.y.y.y.y.y. .| #.y.y.y.y.y.y.y.y.y.y.y.y.y.y.t.| | Z 2 n N C &   > }  .,   w u.u.*._ )     X.y.y.y.",
"y.y.y.y.y.y.;    .y.y.y.y.y.y.y.y.y.y.y.y.y.y.y.y.y.'                           . K _ )     X.y.y.y.",
"y.y.y.y.y.y.;   | y.y.y.y.y.y.y.y.y.y.y.y.y.y.y.y.y.'                             K _ )     X.y.y.y.",
"y.y.y.| 6 6 3.3.>.6 6 y.y.y.y.y.y.y.y.y.y.y.y.y.y.y.'   # z z z x b U U U U U U U ) _ (     X.y.y.y.",
"y.y.y.{     4.5.,.    y.y.y.y.y.y.y.y.y.y.y.y.y.y.y.'   $ x v x h V _ _ _ _ _ _ _ _ _ )     X.y.y.y.",
"y.....o.g g p.p.1.    y.y.y.y.y.y.y.y.y.y.y.y.y.y.y.'   + j j x v B P P P P P D D Y _ )     X.y.y.y.",
"y.X   <.5.4.x.x.0.  . y.y.y.y.y.y.y.y.y.y.y.y.y.y.y.'         z v v v v x v x   X K _ (     X.y.y.y.",
"y..   <.5.5.z.x.u.    y.y.y.y.y.y.y.y.y.y.y.y.y.y.y.'         z x v v v v v x     J _ )     X.y.y.y.",
"y..   R ^ ^ z.x.u.X   y.y.y.y.y.y.y.y.y.y.y.y.@.y y m k k k k = $ $ $ $ J Y U L L ( _ _ L L W u y y.",
"y..   1 v h z.x.u.X   y.-.y.y.y.y.y.y.y.y.y.y.+.    j B x h x @       . L _ ) _ _ _ _ _ _ _ m   X y.",
"y..   1 v x s.d.0.n n ` X.r.y.y.y.y.y.y.y.y.y.+.    ! / / / / f d g 1.1.q.w.w.w.w.w.w.w.w.w.~   . y.",
"y..   1 v v T ) _ _ _ *   } y.y.y.y.y.y.y.y.y.+.    1.5.5.5.5.5.5.i.x.x.x.x.x.x.x.x.x.x.x.x.2.  . y.",
"y..   1 v v ) _ _ _ _ *   } y.y.y.y.y.y.y.y.y.+.    1.5.5.5.5.5.5.p.x.x.x.x.x.x.x.x.x.x.x.x.2.. . y.",
"y..   1 v v ) _ _ _ _ L H Q ' ' ' ' ' ' ' ' ' r     a d ,.5.5.5.4.0.p.p.l.x.x.x.x.x.x.z.1.1.$.X.+.y.",
"y..   1 v v ) _ _ _ _ _ _ C       .           .         a 4.5.5.5.5.5.5.k.x.x.x.x.x.x.l.  . X.y.y.y.",
"y..   1 v v ) _ _ _ _ Y Y M     @ $ $ $ $ $ $ $ $ $ $ $ p 2.2.2.2.2.2.2.p.j.j.j.j.j.j.a.y y #.y.y.y.",
"y..   1 v v _ _ _ _ _ B x 1     z x v x v v v v v v v v k                         .   ; y.y.y.y.y.y.",
"y..   1 v v ) _ T _ _ B v 1     z v v v v v v v v v h h k       X                     ; y.y.y.y.y.y.",
"y.....E < < A F F F F 1 - 2 1 j x v v v v v v V P P P P G D D D D O.i.i.i.i.u.    { ....y.y.y.y.y.y.",
"y.y.y.{     x v v v v +   2 v v v v v v v v x A T _ _ _ _ _ _ _ _ 6.x.x.x.x.l.    X.y.y.y.y.y.y.y.y.",
"y.y.y.| 6 6 c k z z z O   2 v v v v v v v B V F _ _ _ _ _ Y Y %.&.7.l.l.k.k.a.    +.y.y.y.y.y.y.y.y.",
"y.y.y.y.y.y.;             2 v v v v v x v Y T _ _ _ _ _ U v v 3.5.5.5.5.a         @.y.y.y.y.y.y.y.y.",
"y.y.y.y.y.y.;             < v v v v v x v Y T _ _ _ _ _ U v v 4.5.5.5.5.a         +.y.y.y.y.y.y.y.y.",
"y.y.y.y.y.y. .| | | | :   < h v 1 2 2 2 2 M N N C C ( ) I 2 2 ~ ,.,.,.,.e 2 2   . X.y.y.y.y.y.y.y.y.",
"y.y.y.y.y.y.y.y.y.y.y.,   2 v v @   .       .       K _ L               z x c     @.y.y.y.y.y.y.y.y.",
"y.y.y.y.y.y.y.y.y.y.y.,   < x x @                   H ) K     ; : ; .   l v c     @.y.y.y.y.h.y.g.y.",
"y.y.y.y.y.y.y.y.y.y.y.,   X o o     X o o .         7 0 9 X   y.y.e.    9 0 0   . +.y.y.y.y.y.h.y.y.",
"y.y.y.y.y.y.y.f.y.y.y.,   X o o X   X o o X         8 0 8     t.y.e.  . 9 0 9     +.y.y.y.y.y.y.y.y.",
"y.y.y.y.y.y.h.y.y.y.y.,     X X ] } i X X ' { { { { t 7 o     t.y.y.{ { q 7 7     +.y.y.y.y.y.y.y.y.",
"y.y.y.h.y.y.h.y.y.y.y.,         e.y...    #.y.y.y.y.'   X   . t.y.y.y.y.y   .     +.y.y.y.y.y.y.y.y.",
"y.y.y.y.h.y.h.y.y.y.y.6 . . . . e.y.... X #.y.y.y.y.' . . . . y.y.y.y.y.y . . . . @.y.y.y.y.y.y.y.y.",
"y.y.y.y.h.y.y.y.y.y.h.y.y.y.y.y.y.y.y.y.y.y.y.y.y.y.y.y.y.y.y.y.y.y.y.y.y.y.y.y.y.y.y.y.y.y.y.y.y.y.",
"y.y.y.y.h.y.y.y.y.y.y.h.y.y.y.y.y.y.y.y.h.y.h.y.y.y.y.y.y.y.y.y.y.y.y.y.y.y.y.h.y.h.y.y.y.y.y.y.y.y.",
"y.y.y.y.y.y.y.y.y.y.y.h.y.y.y.y.y.y.y.y.y.h.y.y.y.y.y.y.y.y.y.y.y.y.y.y.y.y.y.y.h.y.y.y.y.y.y.y.y.y.",
"y.y.y.y.y.y.y.y.y.y.y.h.y.y.y.y.y.y.y.y.y.y.y.y.y.y.y.y.y.y.y.y.y.y.y.y.y.y.y.y.y.y.y.y.y.y.y.y.y.y.",
"y.y.y.y.y.y.y.y.y.y.y.y.y.y.y.y.y.y.y.y.y.y.y.y.y.y.y.y.y.y.y.y.y.y.y.y.y.y.y.y.y.y.y.y.y.y.y.y.y.y.",
"y.y.y.y.y.y.y.y.y.y.y.y.y.y.y.y.y.y.y.y.y.y.y.y.y.y.y.y.y.y.y.y.y.y.y.y.y.y.y.y.y.y.y.y.y.y.y.y.y.y."
};
