/* XPM */
static char * C:\Users\ocean\Desktop\so_long\so_long_jeudi\so_long\images\cold\nid50_xpm[] = {
"50 50 105 2",
"  	c #A1DCAB",
". 	c #A0DDAC",
"+ 	c #A1D7A5",
"@ 	c #63A889",
"# 	c #9EDBA6",
"$ 	c #B1DEBE",
"% 	c #6DB08D",
"& 	c #8B905E",
"* 	c #898A54",
"= 	c #948D4C",
"- 	c #8E8C51",
"; 	c #8F935C",
"> 	c #949A5E",
", 	c #93914F",
"' 	c #8F8F51",
") 	c #968E4B",
"! 	c #9B9348",
"~ 	c #C4B43C",
"{ 	c #B5D7A2",
"] 	c #B5DBAC",
"^ 	c #B1E8D3",
"/ 	c #B8EFD7",
"( 	c #B7E9D7",
"_ 	c #B4DEBA",
": 	c #B1D3A3",
"< 	c #B9B13F",
"[ 	c #BFBA49",
"} 	c #B4E3C4",
"| 	c #B0EBD7",
"1 	c #B3EFDD",
"2 	c #B6F2DF",
"3 	c #AFE0C4",
"4 	c #B2DAB2",
"5 	c #B5BC49",
"6 	c #9B985B",
"7 	c #A39640",
"8 	c #C0BD4E",
"9 	c #B6D59B",
"0 	c #B1E5CA",
"a 	c #A1A44E",
"b 	c #BDC255",
"c 	c #B3D9A9",
"d 	c #B5F1DF",
"e 	c #9D9B4B",
"f 	c #AAAD6B",
"g 	c #BCC673",
"h 	c #B0D7AE",
"i 	c #B4E3C1",
"j 	c #9A9352",
"k 	c #91975C",
"l 	c #B8C462",
"m 	c #9DD6A5",
"n 	c #BCC35E",
"o 	c #AFD0A0",
"p 	c #AFD09F",
"q 	c #BBC56A",
"r 	c #B7C674",
"s 	c #B1D19D",
"t 	c #A8E0A6",
"u 	c #B9C56B",
"v 	c #ADB46A",
"w 	c #B7CC81",
"x 	c #B6D18F",
"y 	c #B8B545",
"z 	c #A4A546",
"A 	c #B1B649",
"B 	c #B4CF8D",
"C 	c #B3B555",
"D 	c #ACB24B",
"E 	c #9DA04E",
"F 	c #B5DAA8",
"G 	c #A8AC49",
"H 	c #A8AD4E",
"I 	c #B3BA48",
"J 	c #B8CA7B",
"K 	c #A5A949",
"L 	c #B4BE54",
"M 	c #BAC962",
"N 	c #B9C14F",
"O 	c #9FA14B",
"P 	c #C2F8FF",
"Q 	c #9AD89C",
"R 	c #9CD99F",
"S 	c #98D696",
"T 	c #98994F",
"U 	c #B1BB5E",
"V 	c #9A9C4F",
"W 	c #BEF4ED",
"X 	c #BDF3E6",
"Y 	c #B0CD93",
"Z 	c #AFB955",
"` 	c #91CF83",
" .	c #8BCA76",
"..	c #AAB04E",
"+.	c #ADB761",
"@.	c #9BCC87",
"#.	c #95D38F",
"$.	c #92D186",
"%.	c #97CC89",
"&.	c #93D187",
"*.	c #89C56E",
"=.	c #94CB84",
"-.	c #8DCA79",
";.	c #95C680",
">.	c #C1F7FC",
"  . . . . . . . . . . . . . . . . . . . . . . . . . . . . . . . . . . . . . . . . . . . . . . . . . ",
". . . . . . . . . . . . . . . . . . . . . . . . . . . . . . . . . . . . . . . . . . . . . + . . . . ",
". . . . . . . . . . . . . . . . . . . . . . . . . . . . . . . . . . . . . . . . . . @ . . . . . . . ",
". . . . . . . . . . . . @ . . . . # . . . . . . . @ . @ . . . . . . . . . . . . . @ . . . . . . . . ",
". . . . . # . . . . . @ . . . . . . . . . . . . . . @ . . . . . . . . . . . . . . @ . . . . . . . . ",
". . . . .   . . . . . @ . . . . . . . . . . . . . . . . . . . . . . @ . . . . . . . . . . . . . . . ",
". . . . @ . . . . . . . . . . . . . . . . . . . . . . . . . . . . . . @ . . . . . . . . . . . . . . ",
". . . . . @ . . . . . . . . . . . . . . . . . . . . . . . . . . . . . @ . . . . @ . . . . . . . . . ",
". . . . . @ .   # . @ . . . . . . . . . . . . . . . $ # # . . . . . . . . . . @ . . . . . . . . . . ",
". . . . . . . . . @ . . . . . . . . . . . . . . . . . . . . . . . . . . . . . @ . . . . . . . . . @ ",
". . . . . . . . . % . . . . . . . . . @ . @ . . . . . . . . . . . . . . . . . . . . . . . . . . . . ",
". . . . . . . . . . . . . . . # . . . . @ . . . . . . . . . . . . . . . . . . . . . . . . . . . . . ",
". . . . . . . . . . . . . . . . . . . .   . .   .   .   . . . . . . . . . . . . . . . . . . . . . . ",
". . . . . . . . . . . . . . . . & * * = - - - - - - - - & - - - - ; . . . . . . . . . . . . . . . . ",
". . . . . . . . . . . . . . . # > - = - , , , ' , = ' , = = , ' = ; . . # . . . . . . . . . . . . . ",
". . . . . . . . . . , , ) ) ! ~ { { ] ^ ^ ^ / / / / / / ( ^ ^ _ { : < = = - = ; . . . . . . . . . . ",
". . . . . . . .     ; , ' , ! [ ] ] } ^ | | 1 2 2 2 2 1 1 | | 3 4 : 5 ! , , , > +     # . . . . . . ",
". . . . . . . 6 7 8 9 { _ 0 ^ | ^ ^ | | | | 2 2 2 2 2 2 | | | ^ | | ^ ^ ^ _ { 9 [ = ; . . . . . . . ",
". . . . . . . > a b c _ } | | | | | | | | | 1 | d 2 2 2 | 1 | | 1 | ^ | ^ } _ c b e > . # . . . . . ",
". . . . f f g { : h 0 ^ | 2 2 2 1 1 1 | | | | | | d 2 2 1 1 1 1 d 1 1 | ^ | ^ ^ i { 9 8 7 j . . . . ",
". . . . k ' l { : h 3 ^ | 2 2 2 2 2 1 | | | | | | d 2 2 2 2 2 2 2 1 1 | | | | | ^ 0 } b - ; m # . . ",
"  * * n g g : o o : ^ ^ | 1 2 2 2 2 1 | | | | | | 2 2 2 2 2 2 2 1 1 | | | | | ^ h p o o q g ~ + . . ",
"m * * q h : h o o o ^ ^ 1 1 1 1 2 1 1 | | | | | | 2 1 2 1 1 2 1 1 1 | | | | | | o o p o h ] r * * . ",
"+ * * q : o h o o o $ $ 3 | 1 | 1 | 1 | | | | | | | | | 1 ^ 1 1 | | | | | | 1 ^ o s p o s : g * * . ",
". * * r h o h h h h o o $ ^ 1 | ^ 0 0 | | | ^ 3 0 0 ^ 0 0 ^ ^ 0 ^ 0 0 0 } i h h h o s s o : r * * . ",
"+ * * r o o : ] c s o o h o o h : o t o o : : : o o o o : : h : : ] ] ] ] o o s : ] ] { : s u - & . ",
"m * * v : : : ] : o o o o o o o c : : o o o : p o o o p p o o o o : ] ] ] s o o : ] ] c : 4 q * *   ",
". * * ; a o : ] { o o o h o o h h { : o o o o : o o o o o o o o s 4 i i i o o s h ] c 9 w x n * *   ",
". - - * a o o : : { ] ] ] ] ] c ] ] ] c c { : : : p p p : c : p o s s o o : ] ] ] ] ] b * * y * *   ",
". - - z r o : o s h ] ] ] ] ] c ] ] ] ] ] ] ] ] _ : p p : 4 c : o o : o o o ] ] ] ] ] b * * A - *   ",
". * * y r B 9 o s : ] ] { h h 4 4 ] _ c ] ] ] ] ] p : s c ] ] : o o : o o : ] ] ] ] ] g C A D * *   ",
". * * D E , g : o s ] h s s o o o s h ] ] ] ] ] F c c c c ] ] c ] ] ] ] ] ] ] ] ] ] c o s u G * *   ",
". * * H I D q s o { c { p p p p p p 4 ] ] ] ] ] ] ] ] ] ] ] ] ] ] ] ] ] c ] ] ] ] c p s s l G * * . ",
". * * z 5 I u s o o p c o o p p s : c c ] ] ] ] c ] ] ] ] ] ] ] F ] F ] ] c ] c c : p s J 5 G * * . ",
". * * K I 5 L { o p o c 4 ] ] ] ] ] c ] ] ] c ] ] ] ] ] ] ] ] ] ] ] ] ] c p p : : s p B L 5 K * * . ",
". * * z 5 I I s o o o o c ] ] ] ] ] ] c ] ] ] ] ] ] ] c ] ] ] ] ] ] ] ] c p p p : c : J I A e * * . ",
". - - z I A I J s : s c { { { c ] ] F { { { { : F F ] ] ] ] ] ] ] ] { { s s : : p : u I I A e - ' # ",
". . .   ' - z 5 5 w : s s 5 5 M ] ] 9 N 5 5 5 5 N F ] ] ] ] ] ] ] ] M N L L L 5 5 5 I z * ' # # . . ",
". . . # * * O I 5 w s p s 5 5 M F F 9 5 5 5 I 5 N { F ] ] ] ] ] ] F M 5 5 I I I 5 5 I z * * P . P . ",
". .   Q * - O I 5 J : : B 5 5 N { F x N 5 N N N N F F ] F { { { { { M M l L 5 5 5 5 5 z ' ' # P . . ",
". . # R S S S ' T 5 5 L 5 I I 5 5 5 M s p p o p : : : : b 5 N 5 5 5 s p p U 5 I 5 V H R R S # # . . ",
". # # R S S W * * T T G I I 5 5 5 5 b : p p p o p s o { N I I 5 5 5 s p p U D H V ' , R S R # # . . ",
". . . P # S X ' * ' T T G 5 5 5 5 5 b s p p s o : p o : N 5 I 5 5 5 s s Y Z D H , ' T R # # # . . . ",
". . . # P S X ` ` ` ` `  ., T a K K H ..+.+.U A I I C I I I A I A I D a a @.S #.#.#.#.S # . . . . t ",
". . . . P R $.` ` ` 2  . .* ' T e T V V V V V O V E E E E E E O O O V V V %.#.&.$.` S # R . . . . . ",
". . . . P # S #.` `  ./ *.' ' T T T T T V V V T T T T T T T T T T T V T V =.&.W S W R # # # . . . . ",
". . . . . # . . R S S X ` -. . .` =.` =.` ( ` =.=.=.=.=.;.;.` ` =.=.;.=.&.S # # >.# # . . . . . . . ",
". . . . t . . . # R R W &.$.$.` &.$.=.$.` =.$.$.$.` $.` $.` ` ` ` =.` ` S R # # # # . . . . . . . . ",
". . . . t # . . . . . . # # # R R R # R Q R Q S Q S S S S S Q S #.Q Q R R # # . . . . . . . . . . . ",
". . . . t # . . . . . . . # . . # # . # # # # # # # # # # # # # .   . . # . . . .     t t t t . . . "};
