/* XPM */
static char * C:\Users\ocean\Desktop\so_long\so_long_jeudi\so_long\images\cold\nid_cot50_xpm[] = {
"50 50 164 2",
"  	c #A1DCA9",
". 	c #A0DDAC",
"+ 	c #9FDCAC",
"@ 	c #63A889",
"# 	c #9EDBA8",
"$ 	c #060B15",
"% 	c #98D2A3",
"& 	c #000B15",
"* 	c #94CD9F",
"= 	c #980205",
"- 	c #9D0205",
"; 	c #8B775C",
"> 	c #9BD6A6",
", 	c #B1DEBE",
"' 	c #010103",
") 	c #D40000",
"! 	c #6DB08D",
"~ 	c #A20000",
"{ 	c #96D0A2",
"] 	c #050B08",
"^ 	c #CCFFFF",
"/ 	c #B8FFFF",
"( 	c #9DCFFF",
"_ 	c #BAF3FF",
": 	c #BEF7FF",
"< 	c #C4FFFF",
"[ 	c #779EE6",
"} 	c #AFE6FF",
"| 	c #A9DFFF",
"1 	c #ADE3FF",
"2 	c #4E6C9F",
"3 	c #A3D5FF",
"4 	c #476493",
"5 	c #36486D",
"6 	c #5C81BD",
"7 	c #B3EAFF",
"8 	c #BFFCFF",
"9 	c #9ED3FF",
"0 	c #4E6EA2",
"a 	c #899F70",
"b 	c #8B8F59",
"c 	c #8D8C51",
"d 	c #8F9052",
"e 	c #8D925F",
"f 	c #7AA2EC",
"g 	c #5878B1",
"h 	c #506EA2",
"i 	c #769DE4",
"j 	c #D4FFFF",
"k 	c #94C3FF",
"l 	c #A4DDFF",
"m 	c #A4B805",
"n 	c #8E9A00",
"o 	c #AEF0FF",
"p 	c #C7F2FF",
"q 	c #B4C203",
"r 	c #9AA800",
"s 	c #B1FFFF",
"t 	c #969E65",
"u 	c #A3BC77",
"v 	c #6B7508",
"w 	c #003000",
"x 	c #A79FC8",
"y 	c #CDBCFF",
"z 	c #CE8ACA",
"A 	c #C9E2FF",
"B 	c #B6EEFF",
"C 	c #98C9FF",
"D 	c #959A5E",
"E 	c #A1D7A5",
"F 	c #AAAD6B",
"G 	c #BCC673",
"H 	c #B5D7A2",
"I 	c #B3DAB2",
"J 	c #6F9AE0",
"K 	c #B5D49B",
"L 	c #C0BD4E",
"M 	c #A1A44E",
"N 	c #9A9352",
"O 	c #BCC35F",
"P 	c #B1D3A3",
"Q 	c #B1D7AE",
"R 	c #CBC1FF",
"S 	c #C1F1FF",
"T 	c #8FBFFF",
"U 	c #A5D4B7",
"V 	c #BDC355",
"W 	c #898A54",
"X 	c #BBC56A",
"Y 	c #B9C56B",
"Z 	c #AFD0A0",
"` 	c #BEFFFF",
" .	c #AFD09F",
"..	c #C4B43C",
"+.	c #B9CA6A",
"@.	c #B5DBAC",
"#.	c #6C91D4",
"$.	c #B5DAA8",
"%.	c #A7D0AC",
"&.	c #98A481",
"*.	c #9DEBFF",
"=.	c #85B3FF",
"-.	c #5D7EB7",
";.	c #B7C674",
">.	c #ABD5AF",
",.	c #8FBFB1",
"'.	c #99CCD1",
").	c #A4D4DA",
"!.	c #A5D6E1",
"~.	c #B2EDFF",
"{.	c #B0E5E3",
"].	c #B0E2D7",
"^.	c #B2E3CE",
"/.	c #B5ECF6",
"(.	c #B3E8EC",
"_.	c #A9CEA5",
":.	c #ADB761",
"<.	c #B3D9A9",
"[.	c #B1D19D",
"}.	c #B4E3C1",
"|.	c #B7CC81",
"1.	c #B3CF90",
"2.	c #B8C462",
"3.	c #9A9C4F",
"4.	c #B5B445",
"5.	c #A4A546",
"6.	c #B3B555",
"7.	c #ACB24B",
"8.	c #949651",
"9.	c #A8AD4E",
"0.	c #A5A949",
"a.	c #B5BC49",
"b.	c #B3BA48",
"c.	c #B8CA7B",
"d.	c #B4BE54",
"e.	c #9FA14C",
"f.	c #989951",
"g.	c #BAC962",
"h.	c #B9C14F",
"i.	c #C2F8FF",
"j.	c #9CD99F",
"k.	c #98D696",
"l.	c #B1BB5E",
"m.	c #9DA04E",
"n.	c #BEF4ED",
"o.	c #A8AC49",
"p.	c #B1B649",
"q.	c #9AD89C",
"r.	c #BDF3E6",
"s.	c #AFB955",
"t.	c #A8E0A6",
"u.	c #92D186",
"v.	c #91CF83",
"w.	c #8BCA76",
"x.	c #99CC89",
"y.	c #95D38F",
"z.	c #B9F1D6",
"A.	c #9C9C4B",
"B.	c #93D187",
"C.	c #8DCA79",
"D.	c #89C56E",
"E.	c #94CB84",
"F.	c #95C680",
"G.	c #C1F7FC",
"  . . . . . . . . . . . . . . . . . . . . . . . . . . . . . . . . . . . . . . . . . . + . . . . . . ",
". . . . . . . . . . . . . . . . . . . . . . . . . . . . . . . . . . . . . . . . . . . . .   . . . . ",
". . . . . . . . . . . . . . . . . . . . . . . . . . . . . . . . . . . . . . . . . . @ . . .   . . . ",
". . . . . . . . + +   . @ . . . + . . . . . . . . @ . @ . . . . . . . . . . . . . @ . . . . . . . . ",
". . . . . . . . . . . @ . . . . . . . . . . . . . . @ . . . . . . . . . . . . . . @ . . . . . . . . ",
". . . . . . . . . . . @ . . . . . . . . . . . . . . . . . . . . . . @ . . . . . . + . . . . . . . . ",
". . . . @ # . . + . . . . . . $ $ %   . . . . . . . . . . . . . . . . @ . . . + . . . . . + . . . . ",
". . . . . @ . . . . . . . . . & & % + + . . . . . . . . . . . . . + . @ . . . . @ . . . . . . . . . ",
". . . . . @ . . . + @ . . # * = - ; % > # > . . . . . , + + + . . . . > > . + @ . . . . . . . . . . ",
". . . . . . . . . @ . . * & ' ) ) - ' ' ' ' > + . . . . + + . . . . . ' ' . + @ . . . . . . . . . @ ",
". . . . . . . . . ! . . % ' ' ) ) ~ ' ' ' ' {   . . . . . . . . . .   ' ' + + + . . . . . . . . . . ",
". . . . . . . . . # ] & = ) ) ^ ^ / ( _ : < [ ' $ . . . . . . . # ' ' } < [ ' ] . . . . . . . . . . ",
". . . . . . .   . . $ ' - ) ) ^ ^ : } | | 1 2 ' ' +     . . . . . ' ' 3 ^ 4 ' ' . . . . . . . . . . ",
". . . . . . . . . . ' & - ) ) ^ ^ | 5 6 7 8 9 0 [ a b c d d c d e f g } _ ( h i { > . . . . . . . . ",
". . . . . . . . . . ' ' - ) ) ^ j k ' ' j j : | < ' ' ' ' ' ' ' f ^ } ^ ^ _ | < ' '   + . .   . . . ",
". . . . . . . . . . ' ' - ) ) ^ ^ ( ' ' j ^ : l 3 ' ' ' ' ' ' ' g } | < ^ _ | : ' ' . . . . . . . . ",
". + . . . . . % & ' m n o < p < < : ^ : < ^ < < j 3 _ : : 8 8 3 8 8 8 < ^ _ | : ' ' # . + + . . + + ",
"  . . . . . . e ' ' q r s < < < < < < < < < ^ ^ ^ } | } } } } } : < < ^ ^ _ | : ' ' e .   + . . + + ",
"+ . . . . .   t e u v w x y y y z A < < < < < ^ < } } 7 8 8 8 8 _ B B _ B | C | ' ' D   E E . . . . ",
". . . . F F G H H I ' ' - ) ) ) ) z < < < < 8 8 : 7 } : ^ ^ ^ ^ : l | | | C J f ' ' K L M N   . . . ",
". . . . e d O H P Q ' & - ) ) ) ) R < < < < 8 8 : B 7 8 ^ ^ ^ ^ S 1 1 | l T f T ' ' U V d e > . . . ",
"E W ; X Y G P P Z P $ ' - ) ) < ` S 8 : : 8 _ 7 B < ^ ^ ^ j ^ ^ ^ ^ < 3 ( i ' ' P  . .P G Y ..  + . ",
"> W W +.@.Q Q Z Z Q ' & - ) ) ` ` : : : 8 : B } 7 ^ ^ ^ j ^ ^ ^ ^ ^ j 3 k #.' ' Z Z Z Z P $.+.W b . ",
"E W W +.P Z P Z Z Z %.Q &.= = *.3 3 l | : : B 1 } ^ ^ ^ ^ ^ ^ ^ 8 : } T =.-.] ' Z Z Z Z P P ;.W c . ",
"  W W ;.P Z Q Q Q Q P Z >.,.,.'.'.).!.'.~.~.{.].^.{./.(./.(.~./.(.{.].^., , Q _.P P P P P P ;.W W + ",
"  W W ;.P P P @.P P Z Z P P P >.P P P P >.P P P P P Z Z P P Q P P @.@.@.H P  . .P @.@.P P P Y c c + ",
"> W W :.P P H I H Z  .Z Z Z Z P $.P Z Z  . .Z Z Z  . . . .Z Z Z P P @.@.@.P  . .P @.@.$.P <.X W W + ",
"  c W e M Z P H P [.Z P Q P P P P $.P P  . .Z P Z Z Z Z Z Z Z Z P Q }.}.^.[.[.[.Q @.$.K |.1.2.W W + ",
"  c c c 3.P P P P P @.@.@.@.@.<.$.@.@.<.$.H P P P  . . .P <.P Z  . .Z Z P Q @.@.@.@.@.V W W 4.W c + ",
"# d b 5.;.P P Z [.<.@.@.@.@.@.<.@.@.@.$.@.@.@.@.I Z  . .P @.@.P  . .Z Z  .P @.@.@.@.@.V W W 4.W W + ",
"  c b 4.1.;.K P P P @.@.<.Q I <.I I }.$.@.@.@.@.I P Z  .H @.@.P P Z P P Z P @.@.@.@.@.G 6.4.7.W W + ",
"+ W ; 4.3.8.Y P Z P $.P Z Z  . . . .I $.@.@.@.@.@.$.@.@.@.@.@.$.@.@.H @.@.@.@.@.@.H Q P  .Y 9.W c . ",
"+ W c 0.a.7.Y P  .Z $.P  . . . .[.[.<.@.@.@.@.@.@.@.@.@.@.@.@.@.@.@.@.@.@.@.@.@.@.<. .P 1.2.9.c W + ",
"+ W W 0.b.b.X [. . .P P Z P  . .P P >.$.@.@.@.@.@.@.@.@.@.@.@.@.@.@.@.@.@.$.@.$.@.P  . .c.a.0.W c + ",
"# W W 0.a.a.d.P  . . .$.@.@.@.@.@.@.$.@.@.@.@.@.@.@.@.@.@.@.@.@.@.@.@.$.$.P P P P P P 1.d.b.0.c W + ",
". W W e.a.a.a.[.P  . .P <.@.@.@.@.@.@.$.$.@.@.@.$.@.@.@.@.@.@.@.@.@.@.$.P  . . .Z P K c.b.b.f.W c . ",
". d d 5.b.b.a.;.H P P P <.H H $.@.@.$.H H H H H $.$.@.@.@.@.@.@.@.@.$.H [.[. . .[.[.Y b.b.7.e.W d # ",
"+ + .   d c 5.b.b.c.P P [.a.a.g.@.@.K h.a.a.a.a.h.$.@.@.@.@.@.$.@.@.g.a.d.d.d.a.a.a.b.5.W d     . . ",
". . # # W W e.a.a.c. . .1.a.b.g.@.@.K a.a.a.a.a.h.H $.@.@.$.$.$.@.$.g.a.a.b.b.a.a.a.a.5.W W i.# i.. ",
". . # j.W W e.b.a.c.P P K a.b.V $.$.1.h.h.a.d.a.h.$.$.@.$.$.$.$.$.$.+.g.Y d.b.a.b.a.b.5.d d # i.. . ",
". . + k.k.k.k.d f.a.a.h.a.a.a.a.a.d.V P  .[. . . .P P $.V a.a.a.a.a.[. .P l.a.a.a.m.0.j.j.k.# + . . ",
". + + j.k.k.n.W W f.f.o.p.a.a.b.a.b.V P  . . . . . . .P g.a.a.b.a.b.[. . .l.7.0.f.d f.j.q.q.j.. . . ",
". . . i.j.k.r.d W d f.f.o.a.a.a.b.a.V P  . .P  .P P  .[.h.a.b.b.a.a.[. .[.s.7.0.D d f.q.j.# . . . . ",
"t.+ . + i.k.r.u.v.v.v.v.w.8.8.m.o.0.0.7.:.:.l.p.b.b.b.p.b.b.p.b.4.b.9.5.5.x.k.k.y.y.y.k.# . . . . . ",
"+ . . . i.j.u.u.v.v.z.w.w.c c f.A.f.A.3.3.m.m.m.m.e.m.m.e.e.e.e.m.e.m.f.3.x.y.v.B.v.y.j.j.. . . . . ",
"+ . . . i.# k.y.v.v.C.z.D.d d f.f.f.f.f.3.f.3.f.f.f.f.f.f.A.f.f.f.f.3.f.3.x.y.r.y.n.j.# + . . . . . ",
". . . . + + + + j.k.y.r.v.w.w.w.v.E.E.E.E.].v.E.E.E.E.F.E.E.C.v.E.E.F.E.y.y.j.# G.# # . . . . . . . ",
". . . . t.+ + + # j.j.n.y.u.u.u.B.B.B.B.B.B.u.v.v.v.v.v.v.v.v.u.v.E.v.v.y.j.# . . . . . . . . . . . ",
". . . . t.. . . . . . + # j.j.j.k.j.j.q.q.q.k.k.y.y.y.y.k.k.k.k.y.q.q.j.j.# # . . . . + . . . . . . ",
". . + . t.+ . . . . . . . . . . . . . . . . . + . + . # # + . . .   . . #   . . .   t.t.t.t.t.. . . "};
