/* XPM */
static char * C:\Users\ocean\Desktop\so_long\so_long_jeudi\so_long\images\cold\tree50_xpm[] = {
"50 50 154 2",
"  	c #A0DDAC",
". 	c #9EDBAB",
"+ 	c #9EDBAE",
"@ 	c #9BD9B8",
"# 	c #90CBB4",
"$ 	c #8AC2B1",
"% 	c #98D3B1",
"& 	c #96C5AE",
"* 	c #8FCDBE",
"= 	c #88C4BD",
"- 	c #A3D7AE",
"; 	c #6CA4BF",
"> 	c #4A7EBF",
", 	c #4E7FB7",
"' 	c #5389C5",
") 	c #578CC5",
"! 	c #588FC8",
"~ 	c #5C94CD",
"{ 	c #70ADD0",
"] 	c #87C4C7",
"^ 	c #97D4BA",
"/ 	c #9BD6AF",
"( 	c #497DBF",
"_ 	c #649EC5",
": 	c #70B1D0",
"< 	c #81C7DC",
"[ 	c #86CFE0",
"} 	c #89D3E1",
"| 	c #7FC5DA",
"1 	c #7DC3D9",
"2 	c #72B5D0",
"3 	c #63A889",
"4 	c #81BCBE",
"5 	c #72B3CB",
"6 	c #72ADC7",
"7 	c #6CACCB",
"8 	c #79BDD6",
"9 	c #82CBDD",
"0 	c #94DFE9",
"a 	c #9DE6EA",
"b 	c #98E3E9",
"c 	c #97DFE6",
"d 	c #8ED9E6",
"e 	c #80BDC8",
"f 	c #81C9DA",
"g 	c #A4E4AC",
"h 	c #78B5C8",
"i 	c #4E84C5",
"j 	c #91DCE9",
"k 	c #A1E9EA",
"l 	c #8DD7E4",
"m 	c #A2EAEA",
"n 	c #7AB4BF",
"o 	c #5AACCE",
"p 	c #7DBACD",
"q 	c #74ADBF",
"r 	c #5182BD",
"s 	c #8BC9B7",
"t 	c #79B2B5",
"u 	c #538ABE",
"v 	c #95CDAF",
"w 	c #70A7B5",
"x 	c #7FB7B8",
"y 	c #73ABB7",
"z 	c #96D3A8",
"A 	c #6EB2CD",
"B 	c #67A9C7",
"C 	c #4E86C8",
"D 	c #4578BE",
"E 	c #78ACB5",
"F 	c #629BC4",
"G 	c #87BEB2",
"H 	c #6D9DB5",
"I 	c #5C75BA",
"J 	c #7EAAAC",
"K 	c #5E93BB",
"L 	c #5892BB",
"M 	c #6691B4",
"N 	c #64A5C4",
"O 	c #5E9CBD",
"P 	c #548AB5",
"Q 	c #9CD5AB",
"R 	c #5582B5",
"S 	c #76BAD3",
"T 	c #5FA1C1",
"U 	c #568BBB",
"V 	c #5A9CBE",
"W 	c #6481B8",
"X 	c #519AB8",
"Y 	c #5D94B2",
"Z 	c #6DA5B4",
"` 	c #74B0A6",
" .	c #639AB8",
"..	c #83C39D",
"+.	c #62A4C4",
"@.	c #7DB9A9",
"#.	c #87C79D",
"$.	c #6098B7",
"%.	c #8ACA9F",
"&.	c #81BCA9",
"*.	c #91CEA5",
"=.	c #8DC4B1",
"-.	c #8ACAA2",
";.	c #679DB7",
">.	c #91D2A0",
",.	c #82BAB1",
"'.	c #4693BB",
").	c #4A96BA",
"!.	c #6589AF",
"~.	c #6781AC",
"{.	c #787F9C",
"].	c #8AB9AB",
"^.	c #7D8FA0",
"/.	c #7D7A99",
"(.	c #827F96",
"_.	c #94C3A8",
":.	c #869199",
"<.	c #857A92",
"[.	c #8F828D",
"}.	c #836995",
"|.	c #8DAD9F",
"1.	c #C2F8FF",
"2.	c #928893",
"3.	c #938892",
"4.	c #95B9A9",
"5.	c #848F99",
"6.	c #887E93",
"7.	c #979099",
"8.	c #958C96",
"9.	c #8D8496",
"0.	c #8AA7A2",
"a.	c #90BBA8",
"b.	c #838D99",
"c.	c #9B949B",
"d.	c #9D979D",
"e.	c #9996A0",
"f.	c #89A2A2",
"g.	c #8DB1A5",
"h.	c #898799",
"i.	c #9E9BA2",
"j.	c #A29EA5",
"k.	c #9693A0",
"l.	c #8A9A9F",
"m.	c #A3A1A6",
"n.	c #91C0AB",
"o.	c #8E9FA0",
"p.	c #939DA2",
"q.	c #8CA9A3",
"r.	c #9DADA8",
"s.	c #A1A9A8",
"t.	c #9DB2A9",
"u.	c #9BBDAC",
"v.	c #9DB9AB",
"w.	c #99C4AE",
"                            . + @ # $ # % & * = # # = # # = & = # - @                               ",
"                          + + % = ; > , ' ) ) ! ! ~ ) ) ~ ) ' ' { ] ^               -               ",
"                      + + / ^ = ; ( _ : < [ } } } } } } } < | 1 2 ~ ] ^ @   -       3               ",
"                    + @ * 4 5 6 7 { 8 9 } 0 0 a b b c c c c d } < 2 { e ] f g     3                 ",
"                    @ = h ' i 7 1 [ d d j 0 a k k k a 0 k k a c l < { i i h } +   3                 ",
"                  / * 6 7 : 8 9 } d j j j 0 a m k k a 0 a k k b d l < 2 2 6 4 * .                   ",
"        3       / * n 7 : < j 0 0 b b 0 b a a m k a 0 b 0 a a c j j l [ [ 8 { e * +                 ",
"          3   + % 4 7 { | l b a k k a b b a m k k b 0 0 0 0 0 c 0 0 d d l [ 8 o p * +               ",
"          3   / 4 q : 1 9 j a k m m m a a m m a 0 0 j j b a a b b 0 0 0 j } | 2 { 5 ^ +             ",
"              % n ! 1 9 } j b a a a m m m a a b 0 0 j 0 a k k k k b b 0 0 } < p 7 r * +           3 ",
"        .   + s q 7 9 d d j 0 0 b a a m a 0 0 0 j j j 0 a k k k k a a k a d [ | { r = +             ",
"        . g s 4 5 1 l j j j j j 0 0 b a 0 j j j j j j 0 b b b a a k k k k c } [ 1 5 h *             ",
"          - t u : 9 l j j j j j j j j j j j j j j j j j j j 0 j 0 b a k a b j j [ 1 ) 4             ",
"        + v w > : 9 l j j j j j j j j j j j j j j j j j j j j j j 0 0 0 0 0 d d } 1 ) x             ",
"          # y > : | } } l j j j j j l 9 l j j 0 0 j j j j l l l } } l j j l } } [ 1 ) t             ",
"          % y > : 1 | 9 [ j j j j 9 9 9 } j j j j j j j j l 9 | < 9 } j j } < | 1 2 { n             ",
"        + z y ( A 1 1 | 9 l j j j } 9 f [ j j j j j j j j } 9 1 f f 9 d j 9 f 1 2 B 1 *             ",
"        . # y ( A 1 1 1 9 } l l 9 9 < 1 9 } } l l l j j l } [ [ 9 9 } l l 9 1 1 B C ] @             ",
"    .   + % y D B 8 1 1 f f 9 9 9 f f 1 1 < < f 9 } l l [ [ } } d l 9 f 9 1 1 1 { ' ] ^             ",
"    + + . % E D F { 8 1 1 f 9 9 } } 9 f 1 1 1 f f 9 [ [ < < [ [ 9 9 9 f 1 f 1 1 8 { h e             ",
"          / G H I _ 8 < 1 f 9 } } } } f 1 1 1 1 1 1 < 1 f f 1 f f 1 1 1 8 f 8 f 1 8 _ _             ",
"          . v J K _ 2 < 1 1 f 9 9 9 < 1 1 1 1 1 1 1 1 1 1 1 f 8 1 f 1 1 f 8 f f | 2 F L             ",
"            # J M N 8 < f 1 f 1 f 1 1 1 1 1 f 1 1 1 f 1 1 1 1 1 f 8 1 f 8 f f 8 8 : O P 3   3       ",
"          Q $ R ! B 2 2 8 8 8 8 S 8 f 1 8 8 S S 8 1 1 1 1 1 1 1 1 S S S S S S f 7 T U P   3         ",
"          + $ r L T B B : S : B T S f 8 S A B T o 8 1 1 1 1 1 1 S B B T B B T B T V P P             ",
"        3 + $ W V V V T B S B T T A S f A T T T o S 1 | 1 1 1 1 f B T T T T V T T V P P             ",
"        . Q $ X L V V T B 2 B T T S f S A T T T N 2 1 1 | | 8 8 S T T T T T T V V V L Y             ",
"          . $ R V V V V B B B T T T B B A S A A 2 8 1 8 2 B : B B A A S A T T T V L Z `             ",
"          . v E  .V V V T T T T B T T T B S S 8 S S S A o T V T T S S S 2 B T V L Y ` ..            ",
"            / $ H U V V T A f S S T T T T T T T T T o B +.F V V T T T T B T V V L L @.#.            ",
"              v y D X T T S A A A T T V V V V O T O V V T V V V V V V V V V O O L $.@.%.            ",
"              v @. .V V T T T T T T V V V V V V V O V V V V V V V V V V V V V V $.Z &.*.            ",
"              / =.E  .V V V V V V V V O O V V V V V V V V V V V T V V V V V V L Z @.-.. .           ",
"                / =.y ;.L L V V V V V V V V V V V V V V V V V V V V V L L L O Z &.-.>.+             ",
"                . + # y ;. .V V L V V V V V X V L V V V L V V V L V V $.$., w $ *.>.. .             ",
"                    + # $ ,.Z '.L U U P U U U U U U U u U U P P L ).y ,.@.&.$ Q Q + + g             ",
"                    . . + % ,.y y Z H !.~.~.~.~.~.~.{.W ~.W ~.M H y $ z z z + + .                   ",
"                        . + % % # v ].^./.(.(.(.(.(.(.(.(./.{.J =.% / Q . +                         ",
"                            .   . + _.:.<.[.[.[.[.[.[.[.[.<.}.|.Q   .   .                   1.  1.  ",
"                                  . _.:.<.2.3.3.[.[.[.[.2.2.}.|.Q                             1.    ",
"              1.                  % 4.5.6.3.7.3.8.8.8.7.8.9.}.0.v                                   ",
"            1.            + . / % % a.b.6.7.c.c.c.c.d.d.e.8.}.f._./ / / +                           ",
"      1.    1.            . / % v _.g.h.9.c.d.i.c.j.j.j.j.k.9.f._.v v % + +                         ",
"        1.  1.          / / v v =.g.l.l.k.j.j.j.j.j.m.m.m.i.k.l.f.n.v v % Q +                       ",
"        1.          1.  / % v v & g.o.i.m.m.m.m.m.m.m.m.m.m.j.p.q.n.v v v Q + .                     ",
"        1.            1.  % v v & & 4.r.s.s.s.s.m.m.m.m.s.m.r.t.& & v v v z + 1.  1.                ",
"                      1.. Q % v v & & u.u.u.v.s.s.s.s.v.u.u.v.w.v v v v *.z .   1.                  ",
"                      1.  - Q % % % v v w.v v w.s.s.v.w.v & v v v v v z z . .                       ",
"                          . Q Q Q % v v v v v w.w.w.w.v v v v v % Q Q + .                           ",
"                            Q   . - % % Q Q / % / Q % / % Q -                                       "};
