/* XPM */
static char * C:\Users\ocean\Desktop\so_long\so_long_jeudi\so_long\images\cold\sun50_xpm[] = {
"50 50 533 2",
"  	c #A0DDAC",
". 	c #A1DDAB",
"+ 	c #A2DDAA",
"@ 	c #A3DCA8",
"# 	c #A4DCA7",
"$ 	c #A5DCA5",
"% 	c #A6DBA3",
"& 	c #A7DBA2",
"* 	c #A9DBA0",
"= 	c #AADB9E",
"- 	c #AADA9D",
"; 	c #ABDA9C",
"> 	c #ACDA9B",
", 	c #A1DDAA",
"' 	c #A2DCA9",
") 	c #AADA9E",
"! 	c #ABDA9B",
"~ 	c #ADDA99",
"{ 	c #AED997",
"] 	c #AFD996",
"^ 	c #B0D994",
"/ 	c #B1D993",
"( 	c #B0D993",
"_ 	c #AFD995",
": 	c #A4DCA6",
"< 	c #ABDA9D",
"[ 	c #ADDA9A",
"} 	c #B1D891",
"| 	c #B3D88F",
"1 	c #B4D88D",
"2 	c #B5D88B",
"3 	c #B5D78A",
"4 	c #B5D78B",
"5 	c #B2D891",
"6 	c #AED996",
"7 	c #A9DB9F",
"8 	c #A7DBA3",
"9 	c #63A889",
"0 	c #69A67E",
"a 	c #ACDA9A",
"b 	c #B1D992",
"c 	c #B4D88C",
"d 	c #B6D788",
"e 	c #B7D786",
"f 	c #B8D784",
"g 	c #B9D682",
"h 	c #B9D681",
"i 	c #74A366",
"j 	c #73A368",
"k 	c #B3D88E",
"l 	c #A8DBA1",
"m 	c #A3DCA7",
"n 	c #A8DBA0",
"o 	c #6AA67C",
"p 	c #ADDA98",
"q 	c #B7D787",
"r 	c #B8D683",
"s 	c #BAD680",
"t 	c #BBD67E",
"u 	c #BBD67C",
"v 	c #BCD57B",
"w 	c #BCD57A",
"x 	c #BAD479",
"y 	c #75A261",
"z 	c #B9D47B",
"A 	c #A6DCA4",
"B 	c #64A888",
"C 	c #6DA577",
"D 	c #B2D890",
"E 	c #BAD67F",
"F 	c #BBD57C",
"G 	c #B1BB7C",
"H 	c #C0A83F",
"I 	c #C0A73E",
"J 	c #C0A83E",
"K 	c #C7AA37",
"L 	c #BFA83F",
"M 	c #B1BB7D",
"N 	c #BCD57C",
"O 	c #71A46D",
"P 	c #63A888",
"Q 	c #BDD579",
"R 	c #BED577",
"S 	c #BED575",
"T 	c #B3BA78",
"U 	c #C3A231",
"V 	c #C3A230",
"W 	c #C4A332",
"X 	c #B2BA79",
"Y 	c #BED576",
"Z 	c #BDD578",
"` 	c #BBD47B",
" .	c #71A36C",
"..	c #65A886",
"+.	c #A5DCA6",
"@.	c #B6D789",
"#.	c #C5C379",
"$.	c #ACC564",
"%.	c #BFC15E",
"&.	c #C0C05D",
"*.	c #C0C05C",
"=.	c #C8C271",
"-.	c #D7CA6F",
";.	c #D8CA6F",
">.	c #D7C25E",
",.	c #D6C25E",
"'.	c #D6C25F",
").	c #C1B968",
"!.	c #B3B560",
"~.	c #B3B561",
"{.	c #B2B662",
"].	c #B1B664",
"^.	c #B1C885",
"/.	c #B3D88D",
"(.	c #69A67F",
"_.	c #66A785",
":.	c #B2D88F",
"<.	c #BDD678",
"[.	c #BCD478",
"}.	c #B4B56E",
"|.	c #C4A333",
"1.	c #C5A331",
"2.	c #DCCE73",
"3.	c #EFEE9B",
"4.	c #EFEE9A",
"5.	c #EEE374",
"6.	c #EEE375",
"7.	c #C1C05B",
"8.	c #AD8C3C",
"9.	c #A5843B",
"0.	c #A5843C",
"a.	c #A4843D",
"b.	c #A4A575",
"c.	c #6DA576",
"d.	c #BBD477",
"e.	c #C0D571",
"f.	c #BAB46A",
"g.	c #C8A935",
"h.	c #C9A935",
"i.	c #C9A934",
"j.	c #DCCE72",
"k.	c #EDEB95",
"l.	c #D7C25D",
"m.	c #AE8C3B",
"n.	c #B08E3C",
"o.	c #A7A36C",
"p.	c #BDD577",
"q.	c #B6D687",
"r.	c #749866",
"s.	c #BBD67D",
"t.	c #B6CC81",
"u.	c #C5A93D",
"v.	c #C1A73C",
"w.	c #DCC964",
"x.	c #E8DB6F",
"y.	c #E7D870",
"z.	c #E5D56C",
"A.	c #D7C061",
"B.	c #D6C061",
"C.	c #C8AF56",
"D.	c #A78D45",
"E.	c #A68E47",
"F.	c #B1C785",
"G.	c #AED998",
"H.	c #A3DCA9",
"I.	c #B8D785",
"J.	c #BAD57E",
"K.	c #BFD575",
"L.	c #B7CC7D",
"M.	c #C4A230",
"N.	c #D9C35F",
"O.	c #EADE71",
"P.	c #DDC963",
"Q.	c #E8DB6E",
"R.	c #D9C35E",
"S.	c #DBC662",
"T.	c #DBC663",
"U.	c #CAB156",
"V.	c #B2C780",
"W.	c #BDD476",
"X.	c #B8CB7C",
"Y.	c #C4A22F",
"Z.	c #D2BE5E",
"`.	c #D5BA61",
" +	c #CBB262",
".+	c #C2B966",
"++	c #C9AF54",
"@+	c #A6843B",
"#+	c #B3C77D",
"$+	c #C1D470",
"%+	c #B8CB7A",
"&+	c #D3BB55",
"*+	c #C59D54",
"=+	c #BB8348",
"-+	c #BA8147",
";+	c #A26C4B",
">+	c #B99355",
",+	c #A6843A",
"'+	c #B4C67B",
")+	c #BFD472",
"!+	c #B9CB79",
"~+	c #C8A939",
"{+	c #D7C060",
"]+	c #CDB558",
"^+	c #B08E3B",
"/+	c #B4C276",
"(+	c #C0D570",
"_+	c #BAD67E",
":+	c #A2DDA9",
"<+	c #B5B165",
"[+	c #C6B352",
"}+	c #EEE681",
"|+	c #E7D86F",
"1+	c #B87F47",
"2+	c #B77E47",
"3+	c #AD764A",
"4+	c #B8A04A",
"5+	c #A78D44",
"6+	c #A6A46E",
"7+	c #B9D683",
"8+	c #A0DDAB",
"9+	c #B6AE60",
"0+	c #C8B04C",
"a+	c #B07749",
"b+	c #E4D670",
"c+	c #BA9B42",
"d+	c #A59D65",
"e+	c #BDD474",
"f+	c #EEE989",
"g+	c #EDE47C",
"h+	c #B17849",
"i+	c #BA9B41",
"j+	c #A59D64",
"k+	c #BFD473",
"l+	c #B3B55E",
"m+	c #C9AE41",
"n+	c #A59D63",
"o+	c #B7AE5F",
"p+	c #A69D62",
"q+	c #BED574",
"r+	c #A6DBA4",
"s+	c #B5943E",
"t+	c #BFD474",
"u+	c #6EA574",
"v+	c #67A782",
"w+	c #B6B163",
"x+	c #C2A73B",
"y+	c #C8AE48",
"z+	c #B59945",
"A+	c #A88D42",
"B+	c #BCD579",
"C+	c #B5D789",
"D+	c #70A470",
"E+	c #C0D471",
"F+	c #C0D470",
"G+	c #B5C678",
"H+	c #B5C274",
"I+	c #C2D46D",
"J+	c #72A36A",
"K+	c #BED373",
"L+	c #BED372",
"M+	c #BFD371",
"N+	c #CAB155",
"O+	c #C7A055",
"P+	c #72A36B",
"Q+	c #BED374",
"R+	c #78A159",
"S+	c #B5C275",
"T+	c #77A15A",
"U+	c #B9CB78",
"V+	c #B9D57F",
"W+	c #B6D787",
"X+	c #BCD477",
"Y+	c #7B9553",
"Z+	c #799658",
"`+	c #B8D582",
" @	c #C2D46C",
".@	c #A8A368",
"+@	c #A6A46D",
"@@	c #BFD370",
"#@	c #76A25E",
"$@	c #B4D88B",
"%@	c #B4BA74",
"&@	c #B4B55D",
"*@	c #BBB467",
"=@	c #CDBA59",
"-@	c #C5AB51",
";@	c #C4AC4C",
">@	c #B6AB62",
",@	c #A8AE78",
"'@	c #B9D57C",
")@	c #BCD473",
"!@	c #BED370",
"~@	c #BDD371",
"{@	c #BDD372",
"]@	c #BBD47A",
"^@	c #B8D57F",
"/@	c #B5D686",
"(@	c #8BBC8C",
"_@	c #8CB75B",
":@	c #8EB657",
"<@	c #8FB653",
"[@	c #90B551",
"}@	c #90B550",
"|@	c #91B54F",
"1@	c #92B566",
"2@	c #B9CC73",
"3@	c #667355",
"4@	c #697354",
"5@	c #5D6953",
"6@	c #BED36F",
"7@	c #92B654",
"8@	c #92B655",
"9@	c #8AB44C",
"0@	c #89B44E",
"a@	c #8EB85D",
"b@	c #86B556",
"c@	c #88BA8C",
"d@	c #ADD894",
"e@	c #87BB8E",
"f@	c #84B557",
"g@	c #86B453",
"h@	c #89B450",
"i@	c #8AB44D",
"j@	c #8AB24A",
"k@	c #8AB249",
"l@	c #8EB263",
"m@	c #89B44F",
"n@	c #88B552",
"o@	c #82B559",
"p@	c #85BB92",
"q@	c #84BB94",
"r@	c #81B55B",
"s@	c #89B85F",
"t@	c #A8C66D",
"u@	c #AAC669",
"v@	c #ABC566",
"w@	c #ACC563",
"x@	c #A8C568",
"y@	c #A8C467",
"z@	c #A8C466",
"A@	c #AECC7C",
"B@	c #718456",
"C@	c #6E8152",
"D@	c #718455",
"E@	c #6E8153",
"F@	c #B9CC74",
"G@	c #A7C569",
"H@	c #ABC565",
"I@	c #AAC567",
"J@	c #A9C66B",
"K@	c #A6C770",
"L@	c #88B862",
"M@	c #80B65E",
"N@	c #83BC98",
"O@	c #82BC9A",
"P@	c #7FB660",
"Q@	c #8EB868",
"R@	c #BEDC84",
"S@	c #C1DB7E",
"T@	c #C3DA7A",
"U@	c #C5D976",
"V@	c #BCD16E",
"W@	c #9DC385",
"X@	c #7C9551",
"Y@	c #768E50",
"Z@	c #79924F",
"`@	c #7B9552",
" #	c #DDE6A9",
".#	c #A7C991",
"+#	c #8AB34A",
"@#	c #89B34C",
"##	c #BBD170",
"$#	c #C4DA78",
"%#	c #C2DA7C",
"&#	c #C0DB81",
"*#	c #BDDC87",
"=#	c #91BF6C",
"-#	c #7DB762",
";#	c #80BD9D",
">#	c #C2F8FF",
",#	c #A4DBA3",
"'#	c #7FBDA0",
")#	c #7CB764",
"!#	c #8FC06F",
"~#	c #BBDD8B",
"{#	c #BEDC85",
"]#	c #B9D781",
"^#	c #BAD273",
"/#	c #89B34D",
"(#	c #9CC489",
"_#	c #B7CD78",
":#	c #789251",
"<#	c #E2EDB0",
"[#	c #9CC488",
"}#	c #88B450",
"|#	c #B9D275",
"1#	c #B8D783",
"2#	c #BCDC88",
"3#	c #B9DD8E",
"4#	c #8DC071",
"5#	c #7BB866",
"6#	c #7EBDA2",
"7#	c #C4F8FC",
"8#	c #75ABA2",
"9#	c #6A9771",
"0#	c #80B06D",
"a#	c #B6DE92",
"b#	c #BADD8C",
"c#	c #A3C877",
"d#	c #99C06A",
"e#	c #9BBF67",
"f#	c #97BD60",
"g#	c #98BD5D",
"h#	c #8FB75C",
"i#	c #8EB656",
"j#	c #779354",
"k#	c #779355",
"l#	c #97BD5F",
"m#	c #97BD61",
"n#	c #9AC068",
"o#	c #98C06B",
"p#	c #A2C879",
"q#	c #B8DD8F",
"r#	c #B5DE94",
"s#	c #7EAA72",
"t#	c #699873",
"u#	c #72A9A2",
"v#	c #A0DCA9",
"w#	c #73ABA5",
"x#	c #689875",
"y#	c #7DAB75",
"z#	c #B3DF98",
"A#	c #9FC97E",
"B#	c #96C170",
"C#	c #92BE69",
"D#	c #94BE66",
"E#	c #95BE63",
"F#	c #8BB75D",
"G#	c #86B555",
"H#	c #87B553",
"I#	c #759359",
"J#	c #75945A",
"K#	c #8AB75E",
"L#	c #94BE65",
"M#	c #93BE67",
"N#	c #92BF6A",
"O#	c #95C172",
"P#	c #9EC980",
"Q#	c #B4DF96",
"R#	c #B1DF9A",
"S#	c #7CAB76",
"T#	c #679876",
"U#	c #71AAA5",
"V#	c #91CFB5",
"W#	c #8FBF8E",
"X#	c #7CBEA6",
"Y#	c #92BE8A",
"Z#	c #94BE87",
"`#	c #88B972",
" $	c #81B06B",
".$	c #82B068",
"+$	c #769E66",
"@$	c #85A868",
"#$	c #789D62",
"$$	c #719562",
"%$	c #729560",
"&$	c #73945F",
"*$	c #729460",
"=$	c #729561",
"-$	c #719563",
";$	c #779D63",
">$	c #7EA267",
",$	c #7CA369",
"'$	c #82B06A",
")$	c #80B06C",
"!$	c #80BB6F",
"~$	c #93BE89",
"{$	c #91BF8B",
"]$	c #88BEA1",
"^$	c #8AC198",
"/$	c #91CFB6",
"($	c #9FDCA9",
"_$	c #92CEB3",
":$	c #669876",
"<$	c #689874",
"[$	c #699872",
"}$	c #6A9770",
"|$	c #699270",
"1$	c #536C73",
"2$	c #536C72",
"3$	c #546C70",
"4$	c #546C6F",
"5$	c #556C6D",
"6$	c #709566",
"7$	c #6D9167",
"8$	c #6F9566",
"9$	c #556C6E",
"0$	c #546C71",
"a$	c #526C74",
"b$	c #689270",
"c$	c #699771",
"d$	c #689873",
"e$	c #679875",
"f$	c #669877",
"g$	c #92CFB4",
"h$	c #C3F8FE",
"i$	c #659978",
"j$	c #699B7A",
"k$	c #6A9B79",
"l$	c #6EA073",
"m$	c #6C9B76",
"n$	c #59777B",
"o$	c #59777A",
"p$	c #5A7678",
"q$	c #5A7677",
"r$	c #5E7675",
"s$	c #6F996F",
"t$	c #5E7676",
"u$	c #5A7779",
"v$	c #58777C",
"w$	c #6A9B78",
"x$	c #699B79",
"y$	c #6CA177",
"z$	c #689C7C",
"A$	c #C2F8FE",
"B$	c #A3DDA5",
"C$	c #A3DDA4",
"D$	c #A5DBA4",
"E$	c #CBF6F1",
"F$	c #CCF6ED",
"G$	c #A5DCA2",
"H$	c #C7F7F6",
"                      . + @ # $ % & * = - ; > > > > > - = * & % $ # @ + .                           ",
"                  . , ' # $ & * ) ! ~ { ] ^ / / / / ( _ { ~ > - * & $ # ' , .                       ",
"                . , @ : % * < [ { ^ } | 1 2 3 3 3 3 4 1 | 5 ( 6 ~ ; 7 8 : @ , .     9               ",
"              . + @ $ & 0 a ] b | c d e f g h h h i g j e d 4 k b _ a ) l $ m + . 9                 ",
"            . + @ $ n o p / k 3 q r s t u v w w x x y z t s g e 3 1 b { ; * A m + B                 ",
"          . , @ A * > C D 2 q g E F w G H H I I I I J K L M N t h e O D _ a 7 A # + .               ",
"        P , @ $ * > _ | 3 f s N Q R S T U V V V W W V U U X Y Z ` E r  .k ( [ 7 A m + .             ",
"        . ..+.l > _ k @.g t #.$.%.&.*.=.-.;.>.>.>.>.>.,.'.).!.~.{.].^.i d /.( a (.$ @ .             ",
"      . ' _.& ; ] :. .g <.[.}.|.W W 1.2.3.4.5.5.5.5.5.6.6.7.8.9.0.a.b.v h q /.c.> l : ' .           ",
"      , @ % = { D  .g F d.e.f.g.h.i.1.j.4.k.5.5.5.5.5.5.5.l.m.n.8.8.o.p.v s q.r.] < 8 # ,         9 ",
"    . ' +.n [ b 3 j s.t.u.v.w.x.y.l.l.z.5.5.5.5.5.5.5.5.5.z.l.l.A.B.C.D.E.F.h d D G.7 $ H..         ",
"    . @ 8 ; _ 1 I.J.K.L.V M.N.5.O.P.P.z.5.5.5.5.5.5.5.5.5.Q.R.R.S.T.U.9.0.V.s.r 4 / a & # ,         ",
"  . + +.* ~ D d s w W.X.V Y.l.z.z.S.S.Z.`.`. + + + + +.+ +`.S.S.S.S.++@+9.#+Q E e k 6 = $ ' .       ",
"  . H.A - _ c f u p.$+%+Y.Y.&+S.S.S.P.*+=+-+;+;+;+;+;+;+;+>+S.S.S.P.++,+@+'+Y v g 3 b > & @ .       ",
"  , # & a } d s w S )+!+~+1.&+S.P.`.`.*+=+-+;+;+;+;+;+;+;+>+l.{+P.S.]+^+n./+(+Z _+e k { 7 : ,       ",
"  :+$ 7 { k I.s.p.<+v.[+k.k.}+O.|+=+1+*+=+=+-+2+3+;+;+;+;+;+3+3+z.5.O.Q.O.4+5+6+v 7+2 ^ < A ' 8+    ",
". ' A - ^ 2 g v e.9+M.0+4.4.}+5.|+=+=+=+=+=+=+=+a+;+;+;+;+;+;+;+b+5.5.5.5.c+9.d+Q s d } > & @ .     ",
". @ & a } d s Q e+9+Y.0+f+f+g+5.|+=+=+=+=+=+=+=+2+a+h+;+;+;+;+;+b+5.5.5.5.i+@+j+Z t e k G.n # .     ",
". # l ~ :.e t p.k+l+Y.m+5.5.5.5.|+=+=+=+=+=+=+=+=+=+1+;+;+;+;+;+b+5.5.5.5.i+@+n+Y v r c ] 7 +.+     ",
". # * { k I.u R k+o+Y.m+5.5.5.5.|+=+=+=+=+=+=+=+=+=+=+;+;+;+;+;+b+5.5.5.5.i+@+n+S v g 2 ^ - $ +     ",
", : 7 ] c r N Y k+o+1.m+5.5.5.5.|+=+=+=+=+=+=+=+-+-+1+2+1+h+;+;+b+5.5.5.g+i+,+n+S w h 3 ( ; A :+    ",
", : = ] c 7+v Y )+o+Y.m+5.5.5.5.|+=+=+=+=+=+=+=+-+-+-+2+1+h+;+;+z.5.5.5.5.i+,+p+q+Q s @.b ; r+'     ",
"+ +.= _ 2 g w S )+o+Y.m+5.5.5.5.|+=+=+=+=+=+=+=+-+*+1+*+=+1+h+a+|+5.O.z.|+s+,+p+t+Q E d u+! v+'     ",
", +.7 _ c g v S )+o+Y.m+5.5.5.5.|+=+=+=+=+=+=+=+2+2+=+=+=+=+=+=+|+5.Q.P.P.s+,+p+t+Q s @.b o r+'     ",
", : 7 ] 1 r v Y k+w+x+y+O.Q.O.5.P.*+-+*+=+=+=+=+-+-+=+=+=+=+*+-+b+5.z.Z.R.z+A+n+S B+s C+( ; r+'     ",
". # * { D+I.u Y k+E+F+G+^+m.]+P.S.{+Z.*+=+=+=+=+-+-+=+-+=+*+{+`.S.S.]+m.^+H+I+)+S w g 3 ^ - A +     ",
". # l ~ :.J+t p.K+L+M+G+,+,+N+S.S.S.S.*+=+=+-+-+-+-+=+-+=+O+S.S.S.S.++,+,+G+E+k+Y v 7+c _ = $ +     ",
". @ & a } P+E Q Q+L+R+G+,+,+N+S.S.S.S.`.`.`.`.`.&+`.`.`.`.`.S.S.P.S.N+,+,+S+E+k+R s.I.k { * : .     ",
"  :+A < ^ 4 g v W.T+M+U+,+,+++P.S.S.S.|+5.5.5.5.5.5.5.5.5.z.S.S.P.S.++,+,+!+)+t+Q V+W+D [ & # .     ",
"  + $ 7 { /.I.s.X+Y+)+!+A+A+++l.{+{+{+z.5.5.5.5.5.5.5.5.5.z.R.{+Z.S.++A+A+!+T+S Z+`+3 ( ; % @ .     ",
"  . # l ~ 5 d s B+S )+E+ @F+.@^+m.m.m.Z.5.5.5.5.5.5.5.P.P.N+m.^+^+^++@@@M+L+t+#@s.I./.] = $ ' 8+    ",
"  . @ A - ^ $@r F p.t+)+E+F+.@,+,+,+h+&+5.5.5.5.5.5.5.P.S.O+,+,+,+,++@M+M+K+Y w s d D a l # ,       ",
"  8++ +.* p D d s w Y k+E+E+%@&@&@&@&@*@=@=@=@=@=@=@=@-@;@>@&@&@&@&@S+E+)+q+Z s.I.c _ < r+@ .       ",
"    . @ 8 ; ^ c f s.Z S k+E+E+@@F+F+F+,@,+,+,+,+,+,+,+,+,+,@F+F+F+F+E+)+t+R v h @.} ~ n +.:+8+      ",
"    . :++.n ~ } @.`+'@[.)@K+!@!@@@F+F+,@A+A+,+,+,+,+,+A+A+,@F+F+M+M+~@{@W.]@^@/@k ] - % @ .         ",
"      . @ r+) { | (@_@:@<@[@}@|@1@E+F+@@ @2@3@4@5@3@3@2@6@@@F+E+1@7@8@9@0@a@b@c@( > l : ' 8+        ",
"      . :+# & ; d@e@f@g@h@i@j@k@l@M+E+E+@@2@5@5@5@5@3@2@M+M+M+)+l@j@9@m@n@b@o@p@~ 7 $ @ .           ",
"        . H.+.l a q@r@s@t@u@v@w@x@y@z@A@M+M+B@C@D@4@E@F@M+A@z@y@G@H@I@J@K@L@M@N@= r+m + 8+          ",
"        8+, @ $ * O@P@Q@R@S@T@U@V@9@j@W@K+L+X@Y@Z@Z@`@ #K+.#+#@###$#%#&#*#=#-#;#& : ' .     >#  >#  ",
"          . + m ,#'#)#!#~#{#]#s.^#h@/#(#W._#Y+:#:#:#Y+_#<#[#m@}#|#E 1#2#3#4#5#6#: H..         >#    ",
"            . 7#m 8#9#0#a#b#c#d#e#f#g#h#i#m@j#j#j#j#k#i#:@h#l#m#n#o#p#q#r#s#t#u#H.. 8+              ",
"            >#. v#w#x#y#z#r#A#B#C#D#E#F#G#H#I#I#I#I#J#g@G#K#L#M#N#O#P#Q#R#S#T#U#, 8+                ",
"      >#    >#  . V#W#X#Y#Z#`# $.$+$@$#$$$%$&$&$&$&$*$=$-$;$>$,$'$)$!$~${$]$^$/$8+                  ",
"        >#  >#    . ($_$:$<$[$}$|$1$2$3$4$5$6$6$7$6$8$9$4$0$2$a$b$c$d$e$f$g$.                       ",
"        >#          h$V#i$j$k$l$m$n$o$p$q$r$s$s$s$s$s$t$p$u$o$v$d$w$x$y$z$/$                        ",
"        >#            A$B$C$' @ # +.D$8 E$l F$* * * * & & 8 $ : G$H.+ . 8+    >#  >#                ",
"                      >#    . , + ' @ # # H$$ $ $ $ $ : # # @ :+, . 8+          >#                  ",
"                      >#        8+. , + :+' H.H.H.H.' :++ , . .                                     ",
"                                      8+. . . . . . . . .                                           ",
"                                                                                                    "};
