/* XPM */
static char *_2131_f3a1a029358964155ec703a845dc14292cacae678d5c516eecb764f0f3179619[] = {
/* columns rows colors chars-per-pixel */
"50 50 180 2 ",
"   c #78005D",
".  c #7E175D",
"X  c #7D1D5D",
"o  c #7C4078",
"O  c #77547D",
"+  c #4A6579",
"@  c #4E6A79",
"#  c #507E7A",
"$  c #60606F",
"%  c #7C6878",
"&  c #667F77",
"*  c #823F5F",
"=  c #833162",
"-  c #84445F",
";  c #87495F",
":  c #934D5E",
">  c #8F565F",
",  c #84595F",
"<  c #92535D",
"1  c #955C5E",
"2  c #9B5D5E",
"3  c #93645E",
"4  c #976A5F",
"5  c #996B5E",
"6  c #A5785F",
"7  c #8C4160",
"8  c #855661",
"9  c #8A5E60",
"0  c #905263",
"q  c #9B5D60",
"w  c #844B7D",
"e  c #8C6464",
"r  c #976760",
"t  c #996360",
"y  c #996A60",
"u  c #9D7160",
"i  c #907A63",
"p  c #85617C",
"a  c #8C677A",
"s  c #896B7B",
"d  c #946D7C",
"f  c #8C757F",
"g  c #977074",
"h  c #A16167",
"j  c #A56D65",
"k  c #A3656B",
"l  c #A07562",
"z  c #A57B62",
"x  c #A77D6C",
"c  c #AA7F6A",
"v  c #B67C63",
"b  c #A57D7C",
"n  c #B37572",
"m  c #78A158",
"M  c #678177",
"N  c #7A8D75",
"B  c #769A76",
"V  c #76A176",
"C  c #898A6D",
"Z  c #958D75",
"A  c #849B76",
"S  c #899F76",
"D  c #A58264",
"F  c #AE8266",
"G  c #A48E65",
"H  c #AD8268",
"J  c #AE8D6A",
"K  c #B28563",
"L  c #B68A63",
"P  c #B98D65",
"I  c #B18669",
"U  c #B78C68",
"Y  c #B98E68",
"T  c #A29264",
"R  c #A79E66",
"E  c #A1966A",
"W  c #AA996A",
"Q  c #BC9167",
"!  c #BE9369",
"~  c #B0986E",
"^  c #AC8475",
"/  c #AC8579",
"(  c #B28A71",
")  c #BD9471",
"_  c #8EA476",
"`  c #86A879",
"'  c #93AA77",
"]  c #9EA47B",
"[  c #9FB574",
"{  c #AAA467",
"}  c #ABA867",
"|  c #A7A66B",
" . c #ACAC6A",
".. c #B0AC6B",
"X. c #AEB46E",
"o. c #AABB69",
"O. c #B4B56D",
"+. c #B4BD6B",
"@. c #A5AA7C",
"#. c #A2B774",
"$. c #B1B471",
"%. c #B1BD72",
"&. c #BBBD76",
"*. c #C1966A",
"=. c #C49A6C",
"-. c #D2976E",
";. c #C89772",
":. c #C19D79",
">. c #D0A66A",
",. c #CAA375",
"<. c #C5A47C",
"1. c #C9A47D",
"2. c #AEC36A",
"3. c #B4C46C",
"4. c #B9C66E",
"5. c #B4CE6C",
"6. c #BDCD6F",
"7. c #B4D06C",
"8. c #BED06F",
"9. c #B3C372",
"0. c #B5CB73",
"q. c #BBCE70",
"w. c #BED270",
"e. c #BEDC70",
"r. c #BEE06F",
"t. c #C1C37D",
"y. c #C0D470",
"u. c #C8DB71",
"i. c #CEE470",
"p. c #D0E570",
"a. c #5C008A",
"s. c #6B1E8E",
"d. c #5B2F89",
"f. c #5B3B89",
"g. c #5B4D89",
"h. c #674786",
"j. c #6B4981",
"k. c #6B458E",
"l. c #714D8B",
"z. c #6B5A81",
"x. c #60508A",
"c. c #765686",
"v. c #7C578E",
"b. c #7F5B94",
"n. c #835E86",
"m. c #845096",
"M. c #845E95",
"N. c #855F98",
"B. c #8A6486",
"V. c #8F698D",
"C. c #8A758E",
"Z. c #977082",
"A. c #9A7382",
"S. c #866094",
"D. c #8A6492",
"F. c #876198",
"G. c #8E669E",
"H. c #749280",
"J. c #7D9D83",
"K. c #8B8682",
"L. c #948C83",
"P. c #969481",
"I. c #85A383",
"U. c #CBA780",
"Y. c #CCA881",
"T. c #D5B286",
"R. c #D0B28F",
"E. c #D9B689",
"W. c #DCB98A",
"Q. c #D0B391",
"!. c #DDBE92",
"~. c #A3C88C",
"^. c #DEC198",
"/. c #E0C194",
"(. c #E4C79D",
"). c #E3C89C",
"_. c #E6CCA3",
"`. c #E5DBA0",
"'. c #E1CAB1",
"]. c #E6DDB4",
/* pixels */
"y.y.y.y.y.y.y.y.y.y.y.y.y.y.y.y.y.y.y.y.y.y.y.y.y.y.y.y.y.y.y.y.y.y.y.y.y.y.y.y.y.y.y.y.y.y.y.y.y.y.",
"y.y.y.y.y.y.y.y.y.y.y.y.y.y.y.y.y.y.y.y.y.y.y.y.y.y.y.y.y.y.y.y.y.y.y.y.y.y.y.y.y.y.y.y.y.y.y.y.y.y.",
"y.y.y.y.y.y.y.y.y.y.y.y.y.y.y.y.y.y.y.y.y.y.y.y.y.y.y.y.y.y.y.y.y.y.y.y.y.y.y.y.y.y.m y.y.y.y.y.y.y.",
"y.y.y.y.y.y.y.y.y.y.y.y.m y.y.y.y.y.y.e.y.y.y.y.y.m y.m y.y.y.y.y.y.y.y.y.y.y.y.y.m y.y.y.y.y.y.y.y.",
"y.y.y.y.y.y.y.y.y.y.y.m y.y.y.y.y.y.y.y.y.y.y.y.y.y.m y.y.y.y.y.y.y.y.y.y.y.y.y.y.m y.y.y.y.y.y.y.y.",
"y.y.y.y.y.y.y.y.y.y.y.m y.y.y.y.y.y.y.y.y.y.y.y.y.y.y.y.y.y.y.y.y.y.m y.y.y.y.y.y.y.y.y.y.y.y.y.y.y.",
"y.y.y.y.m y.y.y.y.y.y.y.y.y.y.y.y.y.y.y.y.y.y.y.y.y.y.y.y.y.y.y.y.y.y.m y.y.y.y.y.y.y.y.y.y.y.y.y.y.",
"y.y.y.y.y.m y.y.y.y.y.y.y.y.y.y.y.y.y.y.y.y.y.y.y.y.y.y.y.y.y.y.y.y.y.m y.y.y.y.m y.y.y.y.y.y.y.y.y.",
"y.y.y.y.y.m y.y.y.y.m y.y.y.y.y.y.y.y.y.y.y.y.y.y.y.y.y.y.y.y.y.y.y.y.y.y.y.y.m y.y.y.y.y.y.y.y.y.y.",
"y.y.y.y.y.y.y.y.y.m y.y.y.y.y.y.y.y.y.y.y.y.y.y.y.y.y.y.y.y.y.y.y.y.y.y.y.y.y.m y.y.y.y.y.y.y.y.y.m ",
"y.y.y.y.y.y.y.y.y.m y.y.y.y.y.y.y.y.y.m y.m y.y.y.y.y.y.y.y.y.y.y.y.y.y.y.y.y.y.y.y.y.y.y.y.y.y.y.y.",
"y.y.y.y.y.y.y.y.y.y.y.y.y.y.y.y.y.y.y.y.m y.y.y.y.y.y.y.y.y.y.y.y.y.y.y.y.y.y.y.y.y.y.y.y.y.y.y.y.y.",
"y.y.y.y.y.y.y.y.y.y.y.y.y.y.y.y.y.y.y.y.y.y.y.y.y.y.y.y.y.y.y.y.y.y.y.y.y.y.y.y.y.y.y.y.y.y.y.y.y.y.",
"y.y.y.y.y.y.y.y.y.y.y.y.y.y.y.y.y.y.y.y.y.y.y.y.y.y.y.y.y.y.y.y.y.y.y.y.y.y.y.y.y.y.y.y.y.y.y.y.y.y.",
"y.y.y.y.y.y.y.y.y.y.y.y.y.y.y.y.y.y.y.y.y.y.y.y.y.y.y.y.y.y.y.y.y.y.y.y.y.y.y.y.y.y.y.y.y.y.y.y.y.y.",
"y.y.y.y.y.y.y.y.y.y.y.y.y.y.y.y.y.y.y.y.y.y.y.y.y.y.y.y.y.y.y.y.y.y.y.y.y.y.y.y.y.y.y.y.y.y.y.y.y.y.",
"y.y.y.y.y.y.y.y.y.y.y.y.w.w.q.u.w.8.w.w.y.y.y.y.y.y.y.y.y.y.y.y.y.y.y.y.y.y.y.y.y.y.y.y.y.y.y.y.w.w.",
"y.y.y.y.y.y.y.y.y.y.y.y.q.` M M & [ q.e.y.y.y.y.y.y.y.8.y.y.y.y.y.y.y.y.y.y.y.y.y.y.y.y.y.y.y.y.e.w.",
"y.y.y.y.y.y.y.y.y.y.y.y.0.` @ @ @ ' 0.8.8.y.8.7.8.8.8.8.8.y.y.y.y.y.y.y.y.y.y.y.y.y.y.y.y.y.y.y.y.y.",
"y.y.y.y.y.y.y.y.y.y.y.y.q.S @ N I.` ' #.8.4.} { R R R R 3.y.y.y.y.y.y.y.y.y.y.y.y.y.y.y.y.y.y.y.y.y.",
"y.y.y.y.y.y.y.y.y.y.y.y.q.V @ I.~.J.# V 7.2.7 o : < : * } y.y.y.y.y.y.y.y.y.y.y.y.y.y.y.y.y.y.y.y.y.",
"y.y.y.y.y.y.y.y.y.y.y.y.w.[ _ I.I.H.z.C #.| D z 6 6 3 1 } y.y.y.y.y.y.y.y.y.y.y.y.y.y.y.y.y.y.y.y.y.",
"y.y.y.y.y.y.y.y.y.y.y.w.y.w.i._ + @ @ $ ; q ! =.*.>.6 : } y.y.y.y.y.y.y.y.y.y.y.y.y.y.y.m y.m y.y.y.",
"y.y.y.y.y.y.y.y.y.y.y.y.y.y.w.[ N B A C > u ! =.U L G D +.y.y.y.y.y.y.y.y.y.y.y.w.w.w.w.y.m y.y.y.y.",
"y.y.y.y.y.y.y.y.w.w.w.8.y.y.y.w.i.p.i.2.3 u ! ! , , 3.r.y.y.y.y.y.y.y.y.y.y.y.y.y.y.y.q.q.y.y.y.y.y.",
"y.y.y.y.y.y.6.3.+.+.3.+.+.3.+.+.+.+.5.{ 1 u ! ! q 2 o.5.+.+.+.+.3.+.+.+.+.+.+.+.+.+.+.3.q.w.y.y.y.y.",
"y.y.y.y.y.y.+.t , q q t 3 t t t 4 q 4 1 < u ! ! u > 3 r r r 5 5 r r r r r y y r r r 9 } q.y.y.y.y.y.",
"y.y.y.y.y.4...j h h h k k h q q y 5 5 3 3 u ! ! y 3 4 5 q q q 2 q q t q q q q q q q 2 W +.6.y.y.y.y.",
"y.y.y.y.+.i J :.1.U.Y.R.Q.:.U U U L F 6 3 u *.! y 3 F U U U Y Y U U U Q U U U U U U U J z ..y.y.y.y.",
"y.y.q.4...= n T.W.W.W._.`.T.,.=.*.! L 6 5 6 Q Q t 9 Q =.=.=.=.*.=.=.=.=.=.) ) ) ) ) -.c * E &.q.w.y.",
"y.y.O.D ~ :.Y.E.W.W.W././.^.!.,.Q P L K 6 K P Y U U *.=.=.=.=.=.=.=.=.=.) b A.A.A.A.Z.a w f P.P.q.y.",
"y.6.}   ( E.W.W.W.W.W.W.W.).].1.Y L L L L P L Y *.=.=.=.=.=.=.=.=.=.=.=.( V.k.k.k.k.v.v.M.m.s.L.%.q.",
"y.6.} X ( T.W.W.W.W.W.W.W.(._.U.Y P *.*.*.Q *.*.*.=.=.=.=.=.=.=.=.=.;.b A.D.F.F.F.F.N.F.F.F.F.C.P.] ",
"y.y.} X ( T.W.W.W.W.W.W.W.(._.Y.P P *.*.=.=.=.=.=.=.=.=.*.;.=.=.=.=.( l.l.F.G.G.G.G.G.G.G.G.G.m.a.j.",
"y.6.} X ( T.W.W.W.W.W.W.W.(._.Y.P *.*.=.=.=.=.=.=.*.( b L.b b b / =.! b Z.b.b.M.b.b.b.b.b.b.N.C.P.@.",
"y.y.} X I T.W.W.W.W.W.W.W.(._.Y.L *.=.*.=.=.=.=.=.*.Z.l.c.n.l.l.A.-.*.K D O f.f.f.f.g.f.f.g.d.K.0.w.",
"y.6.{ X I T.W.W.W.W.W.W.W.(._.Y.P P *.*.! ! ! Y / / V.M.M.M.M.M.V.b ^ K F g a a a a a a B.p o Z 9.y.",
"y.y.{ . ( T.W.W.W.W.W.W.W._._.Y.P L L L L L P I c.v.D.G.G.G.G.G.M.h.O H L K F F c K H K H l 0 G 4.y.",
"y.6.} . ( T.W.W.W.W.W.W.W.(._.Y.P L L L P P P P d B.D.M.N.F.F.S.M.p s U Y Q P P L L L L L 6 < T 4.y.",
"y.6.} = ( T.W.W.W.W.W.W.W.(._.Y.P L L Q *.*.*.*.U H n.x.l.l.l.x.p c I ! *.*.*.P L L L L L z : T 4.w.",
"8.8. .8 ( Y.T.E.E.W.W.!.!.).^.,.P L L L *.*.*.*.L L % j.z.z.z.j.d K P *.*.*.*.P L L L K K 6 5 R 4.8.",
"q.9.%.X.| e ( T.W.W.W./.).Y.:.Y L L L L P P P P L L H D x c c H v L L P P P P L L L L 6 2 G  .+.9.q.",
"0.9.9.9.} = n T.E././.).'.1.v v v v v v v v v v v U P L L L L L L L v v v v v v v P L j - E %.9.9.0.",
"8.8.0.9.%. .$.&.<.q.4.t.~.&.O.O.O.O.O.O.O.O.O.O.O.O.O.O.O.O.O.O.O.O.O.O.O.O.O.O...O.O.O. .o.9.9.q.8.",
"8.w.q.9.9.9.9.9.9.9.%.&.t.+.+.3.9.9.9.9.9.9.9.9.9.9.9.9.9.9.9.9.9.9.9.9.%.9.9.9.9.9.9.9.9.9.9.0.8.y.",
"e.y.w.q.q.q.q.q.q.q.q.y.y.y.q.q.q.q.q.6.q.q.q.8.6.6.q.q.6.q.q.q.8.6.0.6.q.6.q.q.q.q.q.q.q.q.q.q.y.y.",
"y.y.y.y.y.y.y.y.y.y.y.y.y.y.y.y.y.y.y.y.8.y.y.y.y.y.w.w.y.y.y.y.y.y.8.y.y.y.y.y.y.y.y.y.y.y.y.y.y.y.",
"y.y.y.y.y.y.y.y.y.y.y.y.y.y.y.y.y.y.y.y.y.y.y.y.y.y.w.w.y.y.y.y.y.y.y.y.y.y.y.y.y.y.y.y.y.y.y.y.y.y.",
"y.y.y.y.y.y.y.y.y.y.y.y.y.y.y.y.y.y.y.y.y.y.y.y.y.y.y.y.y.y.y.y.y.y.y.y.y.y.y.y.y.y.y.y.y.y.y.y.y.y.",
"y.y.y.y.y.y.y.y.y.y.y.y.y.y.y.y.y.y.y.y.y.y.y.y.y.y.y.y.y.y.y.y.y.y.y.y.y.y.y.y.y.y.y.y.y.y.y.y.y.y."
};
