/* XPM */
static char *_2975_868910a5f03c1c757e8b29c6e63dd046a3ada92595cec861f5cad3a3c50fb4b3[] = {
/* columns rows colors chars-per-pixel */
"50 50 121 2 ",
"   c #5D6953",
".  c #667355",
"X  c #697354",
"o  c #A26C4B",
"O  c #AD764A",
"+  c #B77E47",
"@  c #B87F47",
"#  c #B07749",
"$  c #B17849",
"%  c #768E4F",
"&  c #79924E",
"*  c #6E8152",
"=  c #718455",
"-  c #7C9550",
";  c #78A158",
":  c #A6843A",
">  c #AE8C3B",
",  c #B08E3B",
"<  c #B5943E",
"1  c #C4A22F",
"2  c #C5A331",
"3  c #C9A934",
"4  c #C2A73B",
"5  c #C7A93A",
"6  c #C8A939",
"7  c #809A4D",
"8  c #889F4F",
"9  c #A88D42",
"0  c #BA8147",
"q  c #BB8348",
"w  c #B59945",
"e  c #BA9B41",
"r  c #B99355",
"t  c #8FAB4D",
"y  c #8BB247",
"u  c #8CB348",
"i  c #91B54E",
"p  c #8FA550",
"a  c #90A650",
"s  c #93B652",
"d  c #99B451",
"f  c #9DBB52",
"g  c #B8A049",
"h  c #B7AE5E",
"j  c #A2BD56",
"k  c #A8B85E",
"l  c #B4B55D",
"z  c #A69D61",
"x  c #86A36D",
"c  c #88A56E",
"v  c #8FB261",
"b  c #92B565",
"n  c #91B770",
"m  c #93B974",
"M  c #A6A46D",
"N  c #A8A368",
"B  c #B6AB62",
"V  c #A4BA64",
"C  c #A0B76C",
"Z  c #B6B162",
"A  c #BBB467",
"S  c #B6B469",
"D  c #A8AE78",
"F  c #B4BA74",
"G  c #C59D54",
"H  c #C9AE41",
"J  c #C4AC4C",
"K  c #C8AE48",
"L  c #C8B04C",
"P  c #C7A055",
"I  c #C5AB51",
"U  c #C9AF54",
"Y  c #C6B352",
"T  c #CAB155",
"R  c #CDB558",
"E  c #CDBA59",
"W  c #D3BB55",
"Q  c #D2BE5E",
"!  c #CBB262",
"~  c #C2B966",
"^  c #D5BA61",
"/  c #AEC45E",
"(  c #9EC37F",
")  c #A9C464",
"_  c #BFD067",
"`  c #BED36F",
"'  c #ADC677",
"]  c #AFCC7A",
"[  c #B5C274",
"{  c #B9CC73",
"}  c #B5C678",
"|  c #B9CB78",
" . c #BFD370",
".. c #C1C05A",
"X. c #D7C25D",
"o. c #D9C35E",
"O. c #C9C26F",
"+. c #D7C060",
"@. c #DBC662",
"#. c #DDC963",
"$. c #D8CA6E",
"%. c #C2D46C",
"&. c #C9D86C",
"*. c #DCCE72",
"=. c #C0D470",
"-. c #E5D56C",
";. c #E7D86F",
":. c #E8DB6E",
">. c #E4D670",
",. c #EADE71",
"<. c #EEE374",
"1. c #EDE47C",
"2. c #9EC381",
"3. c #A8C98C",
"4. c #EEE681",
"5. c #EEE989",
"6. c #EDEB95",
"7. c #EFEE9A",
"8. c #DEE6A5",
"9. c #E5ECA7",
"0. c #E8EEAA",
/* pixels */
"=.=.=.=.=.=.=.=.=.=.=.=.=.=.=.=.=.=.=.=.=.=.=.=.=.=.=.=.=.=.=.=.=.=.=.=.=.=.=.=.=.=.=.=.=.=.=.=.=.=.",
"=.=.=.=.=.=.=.=.=.=.=.=.=.=.=.=.=.=.=.=.=.=.=.=.=.=.=.=.=.=.=.=.=.=.=.=.=.=.=.=.=.=.=.=.=.=.=.=.=.=.",
"=.=.=.=.=.=.=.=.=.=.=.=.=.=.=.=.=.=.=.=.=.=.=.=.=.=.=.=.=.=.=.=.=.=.=.=.=.=.=.=.=.=.; =.=.=.=.=.=.=.",
"=.=.=.=.=.=.=.=.=.=.=.=.; =.=.=.=.=.=.=.=.=.=.=.=.; =.; =.=.=.=.=.=.=.=.=.=.=.=.=.; =.=.=.=.=.=.=.=.",
"=.=.=.=.=.=.=.=.=.=.=.; =.=.=.=.=.=.=.=.=.=.=.=.` ` ; ` =.=.=.=.=.=.=.=.=.=.=.=.=.; =.=.=.=.=.=.=.=.",
"=.=.=.=.=.=.=.=.=.=.=.; =.=.=.=.=.=.=.F 4 4 4 4 4 4 4 3 4 F =.=.=.=.; =.=.=.=.=.=.=.=.=.=.=.=.=.=.=.",
"=.=.=.=.; =.=.=.=.=.=.=.=.=.=.=.=.=.=.F 1 1 1 1 2 2 1 1 1 F =.=. .=.=.; =.=.=.=.=.=.=.=.=.=.=.=.=.=.",
"=.=.=.=.=.; =.=.=.=.=.=.=.=.O./ ......O.$.$.X.X.X.X.X.X.X.~ l l l l } ; =.=.=.=.; =.=.=.=.=.=.=.=.=.",
"=.=.=.=.=.; =.=.=.=.; =.%. .S 2 2 2 2 *.7.7.<.<.<.<.<.<.<...> : : : M =.=.=.=.; =.=.=.=.=.=.=.=.=.=.",
"=.=.=.=.=.=.=.=.=.; =.=.` %.A 3 3 3 2 *.7.6.<.<.<.<.<.<.<.X.> , > > N =.=.=. .- =.=.=.=.=.=.=.=.=.; ",
"=.=.=.=.=.=.=.=.=.; =.| 5 4 #.:.;.X.X.-.<.<.<.<.<.<.<.<.<.-.X.X.+.+.U 9 9 } =.=.=.=.=.=.=.=.=.=.=.=.",
"=.=.=.=.=.=.=.=.=. .%.| 1 1 o.<.,.#.#.-.<.<.<.<.<.<.<.<.<.:.o.o.@.@.T : : } =.=.=.=.=.=.=.=.=.=.=.=.",
"=.=.=.=.=.=.=.=.=.=. .| 1 1 X.-.-.@.@.Q ^ ^ ! ! ! ! ! ~ ! ^ @.@.@.@.U : : } =.=.=.=.=.=.=.=.=.=.=.=.",
"=.=.=.=.=.=.=.=.=.=.%.| 1 1 W @.@.@.#.G q 0 o o o o o o o r @.@.@.#.U : : } =.=.=.=.=.=.=.=.=.=.=.=.",
"=.=.=.=.=.=.=.=.=.=.=.| 6 2 W @.#.^ ^ G q 0 o o o o o o o r X.+.#.@.R , , [ %.=.=.=.=.=.=.=.=.=.=.=.",
"=.=.=.=.=.=.=.=.=.Z 4 Y 6.6.4.,.;.q @ G q q 0 + O o o o o o O O -.<.,.:.,.g 9 N =.=.=.=.=.=.=.=.=.=.",
"=.=.=.=.=.=.=.=.%.h 1 L 7.7.4.<.;.q q q q q q q # o o o o o o o >.<.<.<.<.e : z =.=.=.=.=.=.=.=.=.=.",
"=.=.=.=.=.=.=.=. .h 1 L 5.5.1.<.;.q q q q q q q + # $ o o o o o >.<.<.<.<.e : z =.=.=.=.=.=.=.=.=.=.",
"=.=.=.=.=.=.=.=.=.l 1 H <.<.<.<.;.q q q q q q q q q @ o o o o o >.<.<.<.<.e : z =.=.=.=.=.=.=.=.=.=.",
"=.=.=.=.=.=.=.=.=.h 1 H <.<.<.<.;.q q q q q q q q q q o o o o o >.<.<.<.<.e : z =.=.=.=.=.=.=.=.=.=.",
"=.=.=.=.=.=.=.=.=.h 2 H <.<.<.<.;.q q q q q q q 0 0 @ + @ $ o o >.<.<.<.1.e : z =.=.=.=.=.=.=.=.=.=.",
"=.=.=.=.=.=.=.=.=.h 1 H <.<.<.<.;.q q q q q q q 0 0 0 + @ $ o o -.<.<.<.<.e : z =.=.=.=.=.=.=.=.=.=.",
"=.=.=.=.=.=.=.=.=.h 1 H <.<.<.<.;.q q q q q q q 0 G @ G q @ $ # ;.<.,.-.;.< : z =.=.=.=.; =.; =.=.=.",
"=.=.=.=.=.=.=.=.=.h 1 H <.<.<.<.;.q q q q q q q + + q q q q q q ;.<.:.#.#.< : z =.=.=.=.=.; =.=.=.=.",
"=.=.=.=.=.=.=.=.=.Z 4 K ,.:.,.<.#.G 0 G q q q q 0 0 q q q q G 0 >.<.-.Q o.w 9 z =.=.=.=.=.=.=.=.=.=.",
"=.=.=.=.; =.=.=.=.=.=.} , > R #.@.+.Q G q q q q 0 0 q 0 q G +.^ @.@.R > , [ %.=.=.=.=.=.=.=.=.=.=.=.",
"=.=.=.=.=.; =.=. . . .} : : T @.@.@.@.G q q 0 0 0 0 q 0 q P @.@.@.@.U : : } =.=.=.=.=.=.=.=.=.=.=.=.",
"=.=.=.=.=.; =.=. . .; } : : T @.@.@.@.^ ^ ^ ^ ^ W ^ ^ ^ ^ ^ @.@.#.@.T : : [ =.=.=.=.=.=.=.=.=.=.=.=.",
"=.=.=.=.=.=.=.=. .;  .| : : U #.@.@.@.;.<.<.<.<.<.<.<.<.<.-.@.@.#.@.U : : | =.=.=. .=.=.=.=.=.=.=.=.",
"=.=.=.=.=.=.=.=. .- =.| 9 9 U X.+.+.+.-.<.<.<.<.<.<.<.<.<.-.o.+.Q @.U 9 9 | ; =.-  .=.=.=.=.=.=.=.=.",
"=.=.=.=.=.=.=.=.=.=.=.=.%.=.N , > > > Q <.<.<.<.<.<.<.#.#.T > , , , M  . . .=.; =.=.=.=.=.=.=.=.=.=.",
"=.=.=.=.=.=.=.=.=.=.=.=.=.=.N : : : $ W <.<.<.<.<.<.<.#.@.P : : : : M  . . .=.=.=.=.=.=.=.=.=.=.=.=.",
"=.=.=.=.=.=.=.=.=.=.=.=.=.=.F l l l l A E E E E E E E I J B l l l l [ =.=.=.=.=.=.=.=.=.=.=.=.=.=.=.",
"=.=.=.=.=.=.=.=.=.=.=.=.=.=.=. .=.=.=.D : : : : : : : : : D =.=.=.=.=.=.=.=.=.=.=.=.=.=.=.=.=.=.=.=.",
"=.=.=.=.=.=.=.=.=. .`  .`  .` `  .=.=.D 9 9 : : : : : 9 9 D =.=. . .` `  . .` ` =.=.=.=.=.=.=.=.=.=.",
"=.=.=.=.=.=.=.=.=.m i i i i i i b =.=. .%.{ . X   . . { `  .=.=.b s s u u s u n =.=.=.=.=.=.=.=.=.=.",
"=.=.=.=.=.=.=.=.` n y y u u y y v  .=.=. .{         . {  . . .=.v y u u u u y n =.=.=.=.=.=.=.=.=.=.",
"=.=.=.=.=.=.=.=.=.n y i / / / / ) ) ) ]  . .= * = X * {  .] ) ) ) / / / / i y n =.=.=.=.=.=.=.=.=.=.",
"=.=.=.=.=.=.=.=.=.n y d &.&.&.&._ u y 2. . .- % & & - 8. .3.y y _ &.&.&.&.f y n =.=.=.=.=.=.0.=.0.=.",
"=.=.=.=.=.=.=.=.` n y f &.&.%.%._ u y 2. .{ - & & & - { 9.( u u _ %.%.&.&.f y n =.=.=.=.=.=.=.0.=.=.",
"=.=.=.=.=.=.=.0.=.c & t &.&./ j j f f s i u & & & & & i i s f f j j / &.&.p & x =.=.=.=.=.=.=.=.=.=.",
"=.=.=.=.=.=.0.=.` c & a &.&./ j f f f i u u & & & & & y u i f f f j / &.&.p & x =.=.=.=.=.=.=.=.=.=.",
"=.=.=.0.=.=.0.=.=.' k n k k d t t 7 p 7 & & & & & & & & & 7 8 8 t t i k k C V ' =.=.=.=.=.=.=.=.=.=.",
"=.=.=.=.0.=.0.=.=.=.` ' & & & & %           & & % & &           % & & & & ' =.=.=.=.=.=.=.=.=.=.=.=.",
"=.=.=.=.0.=.=.=.=.=.0.' & - - 7 - . . . . X - - - - - X . . . . & - - 7 - ' =.=.=.=.=.=.=.=.=.=.=.=.",
"=.=.=.=.0.=.=.=.=.=.=.0.%.%.=.=.=.=. .=.0.=.0.=.=.=.=.=.=.=.=.=.%.=.=.=.=.=.=.0.=.0.=.=.=.=.=.=.=.=.",
"=.=.=.=.=.=.=.=.=.=.=.0.=.=.=.=.=.=.=.=.=.0.=.=.=.=.=.=.=.=.=.=.=.=.=.=.=.=.=.=.0.=.=.=.=.=.=.=.=.=.",
"=.=.=.=.=.=.=.=.=.=.=.0.=.=.=.=.=.=.=.=.=.=.=.=.=.=.=.=.=.=.=.=.=.=.=.=.=.=.=.=.=.=.=.=.=.=.=.=.=.=.",
"=.=.=.=.=.=.=.=.=.=.=.=.=.=.=.=.=.=.=.=.=.=.=.=.=.=.=.=.=.=.=.=.=.=.=.=.=.=.=.=.=.=.=.=.=.=.=.=.=.=.",
"=.=.=.=.=.=.=.=.=.=.=.=.=.=.=.=.=.=.=.=.=.=.=.=.=.=.=.=.=.=.=.=.=.=.=.=.=.=.=.=.=.=.=.=.=.=.=.=.=.=."
};
