/* XPM */
static char *_9065_4d96892b6ae289724e2ef82fdfe27c9622efe0aa6b60b187939f1d483a0e239e[] = {
/* columns rows colors chars-per-pixel */
"50 50 151 2 ",
"   c #000101",
".  c #000A0A",
"X  c #090A0A",
"o  c #001817",
"O  c #002E00",
"+  c #766200",
"@  c #796800",
"#  c #495127",
"$  c #4A6435",
"%  c #78692C",
"&  c #7B6A31",
"*  c #667139",
"=  c #2A5B5B",
"-  c #434545",
";  c #444C4C",
":  c #565451",
">  c #545C5D",
",  c #727E41",
"<  c #5F6765",
"1  c #5F6969",
"2  c #737265",
"3  c #6B7777",
"4  c #6C7474",
"5  c #747A74",
"6  c #727B7C",
"7  c #B50505",
"8  c #BC0202",
"9  c #C20000",
"0  c #FE0000",
"q  c #836E00",
"w  c #837301",
"e  c #A7723A",
"r  c #758142",
"t  c #798645",
"y  c #7C8947",
"u  c #7F8D48",
"i  c #78A158",
"p  c #7E8778",
"a  c #AC8F00",
"s  c #A99300",
"d  c #B9A100",
"f  c #99863A",
"g  c #CA9300",
"h  c #C5B002",
"j  c #D4BA01",
"k  c #F8BE12",
"l  c #D0B939",
"z  c #F8BE21",
"x  c #DEC53F",
"c  c #FFEF35",
"v  c #8D9C51",
"b  c #A59142",
"n  c #AA9643",
"m  c #9EAE5B",
"M  c #A1B25D",
"N  c #87857F",
"B  c #8F9A7B",
"V  c #A5B660",
"C  c #A9BA62",
"Z  c #C9934C",
"A  c #DAC444",
"S  c #D6C252",
"D  c #FFE357",
"F  c #C0D470",
"G  c #C2D57C",
"H  c #FFE565",
"J  c #FFFB6F",
"K  c #FFFB70",
"L  c #555E87",
"P  c #538889",
"I  c #7D8585",
"U  c #7F869B",
"Y  c #8B8F83",
"T  c #848E8E",
"R  c #8A8E8E",
"E  c #848B90",
"W  c #8B9696",
"Q  c #8E9696",
"!  c #909797",
"~  c #929B9B",
"^  c #9DA08C",
"/  c #ADB78E",
"(  c #A2A39F",
")  c #A6A99C",
"_  c #ADB594",
"`  c #B3B49F",
"'  c #868BA6",
"]  c #8D91AB",
"[  c #96A0A0",
"{  c #9BA5A5",
"}  c #A6A8A5",
"|  c #A2ABAB",
" . c #BBB5AC",
".. c #A4A6B0",
"X. c #A7B1B1",
"o. c #ABB5B5",
"O. c #AEB8B8",
"+. c #B2BBBB",
"@. c #B8B8B9",
"#. c #C89883",
"$. c #F68484",
"%. c #F5B4B4",
"&. c #F3B9B9",
"*. c #BECD8C",
"=. c #BDC996",
"-. c #BBC3A4",
";. c #BEC6AB",
":. c #BCCFBB",
">. c #C3D483",
",. c #C5D58C",
"<. c #C4CB99",
"1. c #C6D592",
"2. c #CAD995",
"3. c #C6D39C",
"4. c #E1CB8F",
"5. c #C8CBA5",
"6. c #C4CBAB",
"7. c #D8CEAD",
"8. c #C8D4A3",
"9. c #CCD9A3",
"0. c #C7D2A8",
"q. c #CBD3AE",
"w. c #D3CEB2",
"e. c #C9D3B3",
"r. c #D7E1B4",
"t. c #E8EEAA",
"y. c #B6C1C1",
"u. c #BBC6C6",
"i. c #C2C2C3",
"p. c #C3CDCD",
"a. c #D1D5C1",
"s. c #CBD5D5",
"d. c #CED9D9",
"f. c #D2DCDC",
"g. c #F0D8D8",
"h. c #D0E6CC",
"j. c #DFE6DB",
"k. c #D4F6DA",
"l. c #C3E4E4",
"z. c #D6E0E0",
"x. c #DAE4E4",
"c. c #DFE9E9",
"v. c #DCFFFF",
"b. c #E3EDED",
"n. c #EBE8E8",
"m. c #E5F1F1",
"M. c #EBF5F5",
"N. c #E4FFFF",
"B. c #ECFDFD",
"V. c #F4FEFE",
"C. c #FEFFFF",
/* pixels */
"F F F F F F F F F F F F F F F F F F F F F F F F F F F F F F F F F F F F F F F F F F F F F F F F F F ",
"F F F F F F F F F F F F F F F F F F F F F F F F F F F F F F F F F F F F F F F F F F F F F F F F F F ",
"F F F F F F F F F F F F F F F F F F F F F F F F F F F F F F F F F F F F F F F F F F i F F F F F F F ",
"F F F F F F F F F F F F i F F F F F F F F F F F F i F i F F F F F F F F F F F F F i F F F F F F F F ",
"F F F F F F F F F F F i F F F F F F F F F F F F F F i F F F F F F F F F F F F F F i F F F F F F F F ",
"F F F F F F F F F F F i F F F F F F F F F F F F F F F F F F F F F F i F F F F F F F F F F F F F F F ",
"F F F F i F F F F F F F F F F F F F F F F F F F F F F F F F F F F F F i F F F F F F F F F F F F F F ",
"F F F F F i F F F F F F F F F F F F F F F F F F F F F F F F F F F F F i F F F F i F F F F F F F F F ",
"F F F F F i F F F F i F F F F F F F F F F F F F F F F F F F F F F F F F F F F i F F F F F F F F F F ",
"F F F F F F F F F i F F F F F F F F F F F F F F F F F F F F F F F F F F F F F i F F F F F F F F F i ",
"F F F F F F F F F i F F F F F X X t F i F i F F F F F F F F F F F F F F F F F F F F F F F F F F F F ",
"F F F F F F F F F F F F F F F . . M F F i F F F F F F F F F F F F F F F F F F F F F F F F F F F F F ",
"F F F F F F F F F F F F M t m 7 8 e M v v , C F F F F F F F F F F F F y * C F F F F F F F F F F F F ",
"F F F F F F F F F F F F r .   0 0 8         r F F F F F F F F F F F F     r F F F F F F F F F F F F ",
"F F F F F F F F F F F F M     0 0 9         m F F F F F F F F F F F F     M F F F F F F F F F F F F ",
"F F F F F F F F F F   . 7 0 0 V.V.v.u.b.b.M.!   X F F F F F F F r     j.B.~     F F F F F F F F F F ",
"F F F F F F F F F F X   8 0 0 V.V.b.d.d.d.d.<     F F F F F F F M     u.V.>     F F F F F F F F F F ",
"F F F F F F F F F F X . 8 0 0 V.V.d.- 3 z.m.p.< Q m v v v v v M B ~ 4 z.b.u.1 Q m r C F F F F F F F ",
"F F F F F F F F F F     8 0 0 V.C.+.    C.C.b.d.M.              ~ V.f.C.V.c.d.M.    * F F F F F F F ",
"F F F F F F F F F F     8 0 0 V.V.u.    V.V.b.s.p.              4 d.d.M.V.x.s.b.    m F F F F F F F ",
"F F F F F F F y   . h a h.B.n.M.M.b.V.b.M.M.M.M.C.p.n.m.b.m.M.p.m.m.m.M.V.c.s.b.    v F F F F F F F ",
"F F F F F F F ,     j d k.B.B.B.B.M.M.M.M.M.V.V.V.f.s.d.f.f.f.f.c.M.M.V.M.c.s.b.    v F F F F F F F ",
"F F F F F F F C , m q O #.%.%.%.$.g.M.M.M.M.M.V.M.f.d.z.m.m.b.b.b.x.x.c.b.s.+.d.    v F i F i F F F ",
"F F F F F F F F F F .   8 0 0 0 0 $.B.M.M.M.M.M.b.f.f.m.V.V.V.V.c.s.s.s.d.+.W ~     v F F i F F F F ",
"F F F F F F F F F F   . 8 0 0 0 0 &.B.M.M.M.M.M.b.x.z.m.V.V.V.V.b.d.d.s.p.+.~ o.    y F F F F F F F ",
"F F F F i F F F F F X   8 0 0 B.N.n.b.b.m.b.x.z.x.M.V.V.V.V.V.V.V.V.M.p.y.Q     F F F F F F F F F F ",
"F F F F F i F F F F X   8 0 0 B.N.b.b.b.b.m.x.f.z.V.V.V.V.V.V.V.V.V.C.p.y.T     F F F F F F F F F F ",
"F F F F F i F F F F $ M e 8 8 l.p.s.d.f.b.b.x.f.x.V.V.V.V.V.C.V.M.b.x.y.X.I   X F F F F F F F F F F ",
"F F F F F F F F F i F F M     ~ R X.O.T c.m.x.f.z.V.V.V.V.V.V.V.b.p.p.I { 5     F F F F F F F F F F ",
"F F F F F F F F F i F F t     O.~ u.u.O.C.c.z.d.f.C.V.V.V.V.V.V.c.p.M.{ :.3   X i F F F F F F F F F ",
"F F F F F F F F F F F F F F F       ;   +.u.+.6 6 f.f.f.f.f.f.f.u.4 {     m F i F F F F F F F F F F ",
"F F F F F F F F F F F F F F F     ; 6 6 d.+.| { | M.f.d.s.s.s.M.+.{ y.    , F F F F F F F F F F F F ",
"F F F F F F F F F F F F F F F r M t ;   E ~ W ~ [ o.O.O.o.o.{ | W 5 4 m r C F F F F F F F F F F F F ",
"F F F F F F F F F F F F F F F F F M     =   6 T T T P L L P   o       F F F F F F F F F F F F F F F ",
"F F F F F F F F F F F F F F F F F V * # > > 5 ] R U E E Y ' < > * v u F F F F F F F F F F F F F F F ",
"F F F F F F F F F F F F F F F F F ,.*.a.    w S g     w A Z     / 2.r.1.F F F F F F F F F F F F F F ",
"F F F F F F F F F F F F F F F >.,.,.9.j.    + x l     + A j     / <.9.2.F F F F F F F F F F F F F F ",
"F F F F F F F F F F F F G G >.9.0. .p ^ s n f % & b n f @ q N : N ` q.2.>.F F F F F F F F F F F F F ",
"F F F F F F F F F F F F G >.2.8._ 2     D K n     H J n     i.) ) ;.8.1.G F F F F F F F F F t.F t.F ",
"F F F F F F F F F F F F F F >.,.=.}     k c a     z c a     ( @.0.0.1.G G F F F F F F F F F F t.F F ",
"F F F F F F F t.F F F F F F F G 1.e.;.u.5.w. .....` 4.7.O.` _ 5.3.2.G F F F F F F F F F F F F F F F ",
"F F F F F F t.F F F F F F F F G >.1.>.>.<.3.5.-.5.5.5.q.q.6.<.,.>.F F F F F F F F F F F F F F F F F ",
"F F F t.F F t.F F F F F F F F F F G F G G >.>.>.*.G >.>.,.>.G F F F F F F F F F F F F F F F F F F F ",
"F F F F t.F t.F F F F F F F F F F F F F F F F F F F G F F F F F F F F F F F F F F F F F F F F F F F ",
"F F F F t.F F F F F t.F F F F F F F F F F F F F F F F F F F F F F F F F F F F F F F F F F F F F F F ",
"F F F F t.F F F F F F t.F F F F F F F F t.F t.F F F F F F F F F F F F F F F F t.F t.F F F F F F F F ",
"F F F F F F F F F F F t.F F F F F F F F F t.F F F F F F F F F F F F F F F F F F t.F F F F F F F F F ",
"F F F F F F F F F F F t.F F F F F F F F F F F F F F F F F F F F F F F F F F F F F F F F F F F F F F ",
"F F F F F F F F F F F F F F F F F F F F F F F F F F F F F F F F F F F F F F F F F F F F F F F F F F ",
"F F F F F F F F F F F F F F F F F F F F F F F F F F F F F F F F F F F F F F F F F F F F F F F F F F "
};
