/* XPM */
static char *c066aa9b3e3148cdf90f7406d787ba8dZMxmolbBxXYdxaSC[] = {
/* columns rows colors chars-per-pixel */
"50 50 140 2 ",
"   c #2F2F2E",
".  c #34352F",
"X  c #343433",
"o  c #3B3B3A",
"O  c #46342D",
"+  c #4C352D",
"@  c #53372C",
"#  c #57382C",
"$  c #5B392B",
"%  c #4D3830",
"&  c #5D3E31",
"*  c #653C2A",
"=  c #6D3F29",
"-  c #444935",
";  c #484E36",
":  c #4F5539",
">  c #555C3B",
",  c #585F3C",
"<  c #7D4427",
"1  c #744128",
"2  c #7A452A",
"3  c #674232",
"4  c #7F4D33",
"5  c #6F5638",
"6  c #5D653F",
"7  c #444443",
"8  c #474847",
"9  c #484847",
"0  c #4C4D4C",
"q  c #595E47",
"w  c #555554",
"e  c #7C594D",
"r  c #636C41",
"t  c #606748",
"y  c #6B7544",
"u  c #6E7846",
"i  c #717C49",
"p  c #73635E",
"a  c #656565",
"s  c #6B6A6A",
"d  c #747474",
"f  c #7E7673",
"g  c #7F7F7E",
"h  c #9D4F1D",
"j  c #854726",
"k  c #8C4A25",
"l  c #924C23",
"z  c #984E22",
"x  c #914D28",
"c  c #9D5021",
"v  c #9E552A",
"b  c #804E34",
"n  c #865135",
"m  c #875734",
"M  c #955635",
"N  c #9D5A36",
"B  c #9E5C38",
"V  c #A65627",
"C  c #AA5A2A",
"Z  c #A15E39",
"A  c #B2602E",
"S  c #A66039",
"D  c #AB633A",
"F  c #B66331",
"G  c #B86432",
"H  c #BE6A37",
"J  c #B0663C",
"K  c #B86738",
"L  c #B6693D",
"P  c #BC6B3D",
"I  c #C16B36",
"U  c #C36E3C",
"Y  c #C7713E",
"T  c #CB723C",
"R  c #D6783E",
"E  c #835F53",
"W  c #837B44",
"Q  c #907343",
"!  c #9E7643",
"~  c #8E6D62",
"^  c #94766B",
"/  c #A47564",
"(  c #A67E71",
")  c #CF7540",
"_  c #D27640",
"`  c #D67941",
"'  c #6C844B",
"]  c #79854B",
"[  c #7D894E",
"{  c #78A158",
"}  c #92884C",
"|  c #879553",
" . c #8C9A55",
".. c #91A057",
"X. c #92A258",
"o. c #9BAB5D",
"O. c #A0B05F",
"+. c #86807F",
"@. c #8C9372",
"#. c #B2816C",
"$. c #A4B561",
"%. c #A7B863",
"&. c #AABB64",
"*. c #A1AC7B",
"=. c #D1835D",
"-. c #D28662",
";. c #D09279",
":. c #B0C267",
">. c #B2C469",
",. c #B6C96A",
"<. c #B8CB6C",
"1. c #C0D470",
"2. c #8A8D82",
"3. c #898989",
"4. c #929292",
"5. c #9E9E9D",
"6. c #A4A4A3",
"7. c gray67",
"8. c #B4ACAA",
"9. c gray70",
"0. c #B9B9B9",
"q. c #DF9F86",
"w. c #D9A48F",
"e. c #DDAA96",
"r. c #E3AF9B",
"t. c #C5AAA1",
"y. c #D7AFA1",
"u. c #E4B4A2",
"i. c #E8EEAA",
"p. c #C0C0C0",
"a. c #CBCBCB",
"s. c #D4D4D4",
"d. c #DDDDDC",
"f. c #EFDAD3",
"g. c #F3DFD9",
"h. c #E2E2E2",
"j. c #EEEEEE",
"k. c #F4F4F4",
"l. c #FDF8F7",
"z. c #FFFEFE",
/* pixels */
"1.1.1.1.1.1.1.1.1.1.1.1.1.1.1.1.1.1.1.1.1.1.1.1.1.1.1.1.1.1.1.1.1.1.1.1.1.1.1.1.1.1.1.1.1.1.1.1.1.1.",
"1.1.1.1.1.1.1.1.1.1.1.1.1.1.1.1.1.1.1.1.1.1.1.1.1.1.1.1.1.1.1.1.1.1.1.1.1.1.1.1.1.1.1.1.1.1.1.1.1.1.",
"1.1.1.1.1.1.1.1.1.1.1.1.1.1.1.1.1.1.1.1.1.1.1.1.1.1.1.1.1.1.1.1.1.1.1.1.1.1.1.1.1.1.{ 1.1.1.1.1.1.1.",
"1.1.1.1.1.1.1.1.1.1.1.1.{ 1.1.1.1.1.1.1.1.1.1.1.1.{ 1.{ 1.1.1.1.1.1.1.1.1.1.1.1.1.{ 1.1.1.1.1.1.1.1.",
"1.1.1.1.1.1.1.1.1.1.1.{ 1.1.1.1.1.1.1.1.1.1.1.1.1.1.{ 1.1.1.1.1.1.1.1.1.1.1.1.1.1.{ 1.1.1.1.1.1.1.1.",
"1.1.1.1.1.1.1.1.1.1.1.{ 1.1.1.1.1.1.1.1.1.1.1.1.1.1.1.1.1.1.1.1.1.1.{ 1.1.1.1.<.1.1.1.1.1.1.1.1.1.1.",
"1.1.1.1.{ 1.1.1.1.1.1.1.1.1.1.1.1.1.1.1.1.1.1.1.1.1.1.1.1.1.1.1.1.1.<.{ u . X . . %.1.1.1.1.1.1.1.1.",
"1.1.1.1.1.{ 1.1.1.1.1.1.1.1.1.1.1.1.1.1.1.1.1.1.1.1.1.1.1.1.1.1.1.1.1.{ y .     X %.1.1.1.1.1.1.1.1.",
"1.1.1.1.1.{ 1.1.1.1.{ 1.1.1.1.1.1.1.1.1.1.1.1.,.| | | | | | | <.1.1.1.1.u X % D S } |  .1.1.1.1.1.1.",
"1.1.1.1.1.1.1.1.1.{ 1.1.1.1.1.1.1.1.1.1.1.1.1.O.              >.1.1.1.1.y   & ` ` 4   - 1.1.1.1.1.{ ",
"1.1.1.1.1.1.1.1.1.{ 1.1.1.1.1.1.1.1.1.{ 1.| 1.%.              >.<.1.1.1.y   $ R ` 4   - 1.1.1.1.1.1.",
"1.1.1.1.1.1.1.1.1.1.1.1.1.1.1.1.1.1.1.1.{ 1.1.O.    j z C ) ) 5 ; i 1.1.y   s l.l.e.) ) ; ; $.1.1.1.",
"1.1.1.1.1.1.1.1.1.1.1.1.1.1.1.1.1.1.1.1.1.1.1.%.    j c C ` ` 3   r <.1.y   s z.z.r.` )     O.1.1.1.",
"1.1.1.1.1.1.X...&.1.1.1.1.1.1.1.1.1.1.1.1.1.1.&... .u 2 b Z B @   : X.X.>   w p.p.;.` )     O.<.1.1.",
"1.1.1.1.1.1.-   X.1.1.1.1.1.1.1.1.1.1.1.1.1.1.1.1.1.]                           . L ` _     $.1.1.1.",
"1.1.1.1.1.1.-   ..1.1.1.1.1.1.1.1.1.1.1.1.1.1.1.1.1.]                             L ` )     O.1.1.1.",
"1.1.<.X.6 6 6.7.+.6 6 <.1.1.1.1.1.1.1.1.1.1.1.1.1.1.]   # l l l l v Y Y Y Y Y Y Y _ ` _     O.1.1.1.",
"1.1.1.|     9.9.2.    ,.1.1.1.1.1.1.1.1.1.1.1.1.1.1.]   $ c c z c C ` ` ` ` ` ` ` ` ` )     O.<.1.1.",
"1.o.o.@.g g s.d.6.    <.1.1.1.1.1.1.1.1.1.1.1.1.1.1.]   + < j z c V I I I I I D D Y ` _     O.1.1.1.",
"1..   4.0.0.z.z.0.    <.1.1.1.1.1.1.1.1.1.1.1.1.1.1.]         l c c c c c c z   . L ` _     O.1.1.1.",
"1.. X 4.0.0.l.z.t.X   ,.1.1.1.1.1.1.1.1.1.1.1.1.1.<.]         z z h c c c c x     L ` _     O.1.1.1.",
"1.. . E / / l.z.p.X   ,.1.1.1.1.1.1.1.1.1.1.1.&.u y m k k k k * $ $ $ $ K T T P P R ` _ P U Q u u 1.",
"<..   < c c l.z.0.X   ,.{ 1.1.1.1.1.1.1.1.1.1.$..   j c c c z @       . P R ` ` _ ` ` ` ` ` n   X 1.",
"1..   < c c f.g.8.n 4 ' O.>.1.1.1.1.1.1.1.1.1.$.    ~ ( ( ( ( f d g 5.5.y.u.u.u.u.u.u.u.u.u.^   . 1.",
"1..   < c c R ` ` ` ` &    .1.1.1.1.1.1.1.1.1.O.    5.9.0.0.0.0.0.a.z.z.z.z.z.z.z.z.z.z.z.z.6.  . 1.",
"1..   < c c _ ` ` ` ` &   | 1.1.1.1.1.1.1.1.1.O.    5.0.0.0.0.0.0.s.z.z.z.z.z.z.z.z.z.z.z.z.6.  . 1.",
"1.. . < c c _ ` ` ` ` P L ! ] ] ] ] ] ] ] ] ] y .   a d 3.0.9.0.9.t.s.s.k.z.z.z.z.z.z.l.5.5.*.$.$.1.",
"1..   2 c c _ ` ` ` ` ` ` Z       .       .             s 0.0.0.0.0.0.0.j.z.z.z.z.z.z.k.  . O.1.1.1.",
"1..   < c c ` ` ` ` ` T Y N     @ $ $ $ $ $ $ $ $ $ $ $ p 6.6.6.6.6.6.6.s.h.h.h.h.h.h.d.y y %.1.1.1.",
"1..   < c c R ` ` ` ` V h <     k h c c c c c c c c c c k                         .   - 1.1.1.1.1.1.",
"1..   < c z _ ` ` ` ` V z <     l c c c c c c c c c c c k       X                     - 1.1.1.1.1.1.",
"1.o.o.W = = F F F G G 2 = 1 j < z c c c c c c C I I I H H D D D D #.a.a.a.a.p.    | o.o.1.1.1.1.1.1.",
"1.1.1.|     z z V h z +   = c c c c c c c c c A ` ` ` ` ` ` ` _ ` q.z.z.z.z.j.    O.1.1.1.1.1.1.1.1.",
"1.1.1...r 6 k l l l l O   = c c c c c c c V C F ` ` ` ` R T R =.-.w.k.k.j.j.h.  . O.1.1.1.1.1.1.1.1.",
"1.1.1.1.1.1.-             = c c c c c c c T R ` ` ` ` ` Y h h 8.0.0.0.0.a         %.1.1.1.1.1.1.1.1.",
"1.1.1.1.1.<.- .           < c c c c c c c T R ` ` ` ` ` T z z 8.0.0.0.0.a         $.1.1.1.1.1.1.1.1.",
"1.1.1.1.1.1.X.......X.-   = c c < 2 1 1 2 M B Z B B Y ` Y 1 1 2.3.3.3.3.e 2 =   . O.1.1.1.1.1.1.1.1.",
"1.1.1.1.1.1.1.1.1.1.1.>   = c c @                   L ` P               k z l   . %.1.1.1.1.1.1.1.1.",
"1.1.1.1.1.1.1.1.1.1.1.> X 3 c z @                   J ) L     - ; -     k v x     $.1.1.1.1.i.1.i.1.",
"1.1.1.1.1.1.1.1.1.1.1.>   X o O X   X o o           8 0 8     >.1.:.    9 0 0     $.1.1.1.1.1.i.1.1.",
"1.1.1.1.1.1.1.i.1.1.1.>   X o o .   X o o X         8 0 9     >.1.:.    9 0 0     $.1.1.1.1.1.1.1.1.",
"1.1.1.1.1.1.i.1.1.1.1.>   X X X [  .' X X ] |  .| | t 7 %     >.1.<.| | q 7 -     %.1.1.1.1.1.1.1.1.",
"1.1.1.i.1.1.i.1.1.1.1.>     .   >.<.O.  . &.<.1.<.1.]         >.1.1.1.1.y         %.1.1.1.1.1.1.1.1.",
"1.1.1.1.i.1.i.1.1.1.1., . . . X ,.<.o.o X &.1.1.1.1.] . X X . >.1.1.1.1.y X . . . %.1.1.1.1.1.1.1.1.",
"1.1.1.1.i.1.1.1.1.1.i.1.1.1.1.1.1.1.1.1.1.1.1.1.1.1.1.1.1.1.1.1.1.1.1.1.1.1.1.1.1.1.1.1.1.1.1.1.1.1.",
"1.1.1.1.i.1.1.1.1.1.1.i.1.1.1.1.1.1.1.1.i.1.i.1.1.1.1.1.1.1.1.1.1.1.1.1.1.1.1.i.1.i.1.1.1.1.1.1.1.1.",
"1.1.1.1.1.1.1.1.1.1.1.i.1.1.1.1.1.1.1.1.1.i.1.1.1.1.1.1.1.1.1.1.1.1.1.1.1.1.1.1.i.1.1.1.1.1.1.1.1.1.",
"1.1.1.1.1.1.1.1.1.1.1.i.1.1.1.1.1.1.1.1.1.1.1.1.1.1.1.1.1.1.1.1.1.1.1.1.1.1.1.1.1.1.1.1.1.1.1.1.1.1.",
"1.1.1.1.1.1.1.1.1.1.1.1.1.1.1.1.1.1.1.1.1.1.1.1.1.1.1.1.1.1.1.1.1.1.1.1.1.1.1.1.1.1.1.1.1.1.1.1.1.1.",
"1.1.1.1.1.1.1.1.1.1.1.1.1.1.1.1.1.1.1.1.1.1.1.1.1.1.1.1.1.1.1.1.1.1.1.1.1.1.1.1.1.1.1.1.1.1.1.1.1.1."
};
