/* XPM */
static char *_085_020ab63f2d98aac685db2b6726499775d024334c47434fc1b5e698787628e23a[] = {
/* columns rows colors chars-per-pixel */
"50 50 165 2 ",
"   c #010101",
".  c #080A03",
"X  c #000A0A",
"o  c #090A0A",
"O  c #002E00",
"+  c #434545",
"@  c #575F5F",
"#  c #5F6767",
"$  c #5F6969",
"%  c #616969",
"&  c #6B7373",
"*  c #6F7B7B",
"=  c #717877",
"-  c #B60202",
";  c #BC0202",
":  c #C20000",
">  c #FE0000",
",  c #817003",
"<  c #A7723A",
"1  c #78A158",
"2  c #AB9300",
"3  c #B9A100",
"4  c #BB952E",
"5  c #BF9A2F",
"6  c #A58434",
"7  c #AA8632",
"8  c #AC8A33",
"9  c #A78938",
"0  c #AA8C3C",
"q  c #B28F32",
"w  c #B98D33",
"e  c #B69232",
"r  c #B99531",
"t  c #BD9930",
"y  c #B3933B",
"u  c #C5B002",
"i  c #D8BA01",
"p  c #C59E2B",
"a  c #C19D30",
"s  c #C6A22D",
"d  c #CAA52D",
"f  c #CEAA2E",
"g  c #D4AE2D",
"h  c #D9AC2A",
"j  c #D7B22C",
"k  c #D9B42D",
"l  c #CAA630",
"z  c #CFAF3D",
"x  c #D6AD35",
"c  c #D2B135",
"v  c #D8B634",
"b  c #DEB931",
"n  c #D4B33B",
"m  c #DCBC3E",
"M  c #EAAC24",
"N  c #E6B530",
"B  c #E2BB35",
"V  c #E1BB3C",
"C  c #DFC03E",
"Z  c #A59847",
"A  c #B49740",
"S  c #B79D53",
"D  c #84A85B",
"F  c #A5BD46",
"G  c #B3BE52",
"H  c #ACB773",
"J  c #CCA644",
"K  c #C4B44C",
"L  c #DDBD44",
"P  c #DBBE4A",
"I  c #E0BD43",
"U  c #E1BE49",
"Y  c #A7C14B",
"T  c #AAC14D",
"R  c #AEC654",
"E  c #AFC856",
"W  c #B2C255",
"Q  c #B0C857",
"!  c #B8C358",
"~  c #B3CA5C",
"^  c #B2C467",
"/  c #B6CD61",
"(  c #B9CF65",
")  c #B4C769",
"_  c #B6C96A",
"`  c #BACD6C",
"'  c #BBD067",
"]  c #BED26D",
"[  c #BFD370",
"{  c #DEC143",
"}  c #DCC14F",
"|  c #DBC353",
" . c #D7C65D",
".. c #CBC56B",
"X. c #C1CE6B",
"o. c #D2C767",
"O. c #D4C866",
"+. c #D9CB64",
"@. c #D2C768",
"#. c #D4CA6A",
"$. c #D9CE69",
"%. c #C1D36E",
"&. c #C9D76C",
"*. c #D7D06E",
"=. c #D9D16D",
"-. c #C8C770",
";. c #C6CB77",
":. c #CDCC72",
">. c #D4CE71",
",. c #C0D470",
"<. c #D6D174",
"1. c #D9D270",
"2. c #D4D57C",
"3. c #D8D97E",
"4. c #838B8B",
"5. c #869393",
"6. c #8E9696",
"7. c #909797",
"8. c #939B9B",
"9. c #A0ABAA",
"0. c #ACB7B6",
"q. c #B2BBBB",
"w. c #C89883",
"e. c #F68484",
"r. c #F5B4B4",
"t. c #F3B9B9",
"y. c #B8C389",
"u. c #C5CB8F",
"i. c #D5D987",
"p. c #D3D88D",
"a. c #C6CD94",
"s. c #D3DB95",
"d. c #D7DE9B",
"f. c #DEE78C",
"g. c #E2E997",
"h. c #E3EA9C",
"j. c #D9E2A2",
"k. c #D5E3A9",
"l. c #E7EDA6",
"z. c #E8EEAA",
"x. c #B6C0C0",
"c. c #BCC6C6",
"v. c #BECACA",
"b. c #BCE1E1",
"n. c #C3CCCC",
"m. c #C5D4D4",
"M. c #CBD6D6",
"N. c #CFD9D9",
"B. c #D2DCDC",
"V. c #F0D8D8",
"C. c #D0E6CC",
"Z. c #D4F6DA",
"A. c #D6E0E0",
"S. c #DAE4E4",
"D. c #DFE9E9",
"F. c #DCFFFF",
"G. c #E7E7E7",
"H. c #E3EDED",
"J. c #EEE8E8",
"K. c #E5F1F1",
"L. c #EBF5F5",
"P. c #E4FFFF",
"I. c #EBFDFD",
"U. c #F4FEFE",
"Y. c #FEFFFF",
/* pixels */
"%.,.,.,.,.,.,.,.,.,.,.,.,.,.,.,.,.,.,.,.,.,.,.,.,.,.,.,.,.,.,.,.,.,.,.,.,.,.,.,.,.,.,.[ ,.,.,.,.,.,.",
",.,.,.,.,.,.,.,.,.,.,.,.,.,.,.,.,.,.,.,.,.,.,.,.,.,.,.,.,.,.,.,.,.,.,.,.,.,.,.,.,.,.,.,.,.%.,.,.,.,.",
",.,.,.,.,.,.,.,.,.,.,.,.,.,.,.,.,.,.,.,.,.,.,.,.,.,.,.,.,.,.,.,.,.,.,.,.,.,.,.,.,.,.1 ,.,.,.%.,.,.,.",
",.,.,.,.,.,.,.,.[ [ %.,.1 ,.,.,.[ ,.,.,.,.,.,.,.,.1 ,.1 ,.,.,.,.,.,.,.,.,.,.,.,.,.1 ,.,.,.,.,.,.,.,.",
",.,.,.,.,.,.,.,.,.,.,.1 ,.,.,.,.,.,.,.,.,.,.,.,.,.,.1 ,.,.,.,.,.,.,.,.,.,.,.,.,.,.1 ,.,.,.,.,.,.,.,.",
",.,.,.,.,.,.,.,.,.,.,.1 ,.,.,.,.,.,.,.,.,.,.,.,.,.,.,.,.,.,.,.,.,.,.1 ,.,.,.,.,.,.[ ,.,.,.,.,.,.,.,.",
",.,.,.,.1 ] ,.,.[ ,.,.,.,.,.,.o o _ %.,.,.,.,.,.,.,.,.,.,.,.,.,.,.,.,.1 ,.,.,.[ ,.,.,.,.,.[ ,.,.,.,.",
",.,.,.,.,.1 ,.,.,.,.,.,.,.,.,.X X _ [ [ ,.,.,.,.,.,.,.,.,.,.,.,.,.[ ,.1 ,.,.,.,.1 ,.,.,.,.,.,.,.,.,.",
",.,.,.,.,.1 ,.,.,.[ 1 ,.,.] ^ - ; < _ ` ] ` ,.,.,.,.,.2.[ [ [ ,.,.,.,.` ` ,.[ 1 ,.,.,.,.,.,.,.,.,.,.",
",.,.,.,.,.,.,.,.,.1 ,.,.^ X   > > ;         ` [ ,.,.,.,.[ [ ,.,.,.,.,.    ,.[ 1 ,.,.,.,.,.,.,.,.,.1 ",
",.,.,.,.,.,.,.,.,.D ,.,._     > > :         ) %.,.,.,.,.,.,.,.,.,.,.%.    [ [ [ ,.,.,.,.,.,.,.,.,.,.",
",.,.,.,.,.,.,.,.,.] . X - > > U.U.F.c.D.H.L.7.  o ,.,.,.,.,.,.,.]     B.L.7.  . ,.,.,.,.,.,.,.,.,.,.",
",.,.,.,.,.,.,.%.,.,.o   ; > > U.U.H.B.M.M.N.#     [ %.%.,.,.,.,.,.    n.U.@     ,.,.,.,.,.,.,.,.,.,.",
",.,.,.,.,.,.,.,.,.,.  X ; > > U.U.M.+ * A.K.v.$ 7.Z 9 7 8 8 7 8 0 8.& B.D.c.% 6.) ` ,.,.,.,.,.,.,.,.",
",.,.,.,.,.,.,.,.,.,.    ; > > U.Y.q.    Y.Y.H.M.L.              8.U.B.U.U.D.M.L.    %.[ ,.,.%.,.,.,.",
",.,.,.,.,.,.,.,.,.,.    ; > > U.U.c.    Y.U.H.m.n.              & B.M.L.U.D.M.H.    ,.,.,.,.,.,.,.,.",
",.[ ,.,.,.,.,._ X   u 2 C.I.J.L.L.H.U.H.L.U.L.L.Y.n.D.H.H.K.K.n.K.K.K.L.U.D.M.H.    ] ,.[ [ ,.,.[ [ ",
"%.,.,.,.,.,.,.0     i 3 Z.I.I.I.I.L.L.L.L.L.U.U.U.B.M.B.B.B.B.B.H.L.L.U.U.D.M.H.    0 ,.%.[ ,.,.[ [ ",
"[ ,.,.,.,.,.%.A 0 K , O w.r.r.r.e.V.L.L.L.L.L.U.L.B.B.A.K.K.K.K.D.S.S.D.S.M.x.M.    y %.X.X.,.,.,.,.",
",.,.,.,.J J U $.$.<.    ; > > > > e.I.L.L.L.K.K.H.A.B.H.U.U.U.U.H.m.M.M.M.x.5.8.    +.N a w %.,.,.,.",
",.,.,.,.0 8 V $.#.>.  X ; > > > > t.I.L.L.L.K.K.H.S.A.K.U.U.U.U.G.N.N.M.m.0.8.0.    ;.B 8 0 ` ,.,.,.",
"X.6 < I L U #.#.@.#.o   ; > > I.P.G.K.H.H.K.D.A.S.L.U.U.U.Y.U.U.U.U.L.n.c.6.    #.o.o.#.U L M %.[ ,.",
"` 6 6 { 1.>.>.@.@.>.  X ; > > P.P.H.H.H.K.H.S.B.A.U.U.U.Y.U.U.U.U.U.Y.n.q.4.    @.@.@.@.#.=.{ 6 9 ,.",
"X.6 6 { #.@.#.@.@.@.-.>.S - - b.n.n.m.M.H.H.S.N.B.U.U.U.U.U.U.U.K.H.B.0.9.= .   @.@.@.@.#.#.P 6 7 ,.",
"%.6 6 P #.@.>.>.>.>.#.@.:.H H y.y.u.a.y.k.k.s.p.i.s.j.d.j.d.k.j.d.s.p.i.2.2.>...#.#.#.#.#.#.P 6 6 [ ",
"%.6 6 P #.#.#.1.#.#.@.@.#.#.#.:.#.#.#.#.:.#.#.#.#.#.@.@.#.#.>.#.#.1.1.1.$.#.o.o.#.1.1.#.#.#.L 7 7 [ ",
"` 6 6 z #.#.$.<.$.@.o.@.@.@.@.#.=.#.@.@.o.o.@.@.@.o.o.o.o.@.@.@.#.#.1.1.1.#.o.o.#.1.1.=.#.*.I 6 6 [ ",
"%.7 6 0 a @.#.$.#.O.@.#.>.#.#.#.#.=.#.#.o.o.@.#.@.@.@.@.@.@.@.@.#.>.3.3.i.O.O.O.>.1.=.+.|  .m 6 6 [ ",
"%.7 7 7 r #.#.#.#.#.1.1.1.1.1.*.=.1.1.*.=.$.#.#.#.o.o.o.#.*.#.@.o.o.@.@.#.>.1.1.1.1.1.B 6 6 h 6 7 [ ",
"] 8 9 p P #.#.@.O.*.1.1.1.1.1.*.1.1.1.=.1.1.1.1.<.@.o.o.#.1.1.#.o.o.@.@.o.#.1.1.1.1.1.B 6 6 h 6 6 [ ",
"%.7 9 h  .P +.#.#.#.1.1.*.>.<.*.<.<.3.=.1.1.1.1.<.#.@.o.$.1.1.#.#.@.#.#.@.#.1.1.1.1.1.U x h f 6 6 [ ",
"[ 6 < h r q L #.@.#.=.#.@.@.o.o.o.o.<.=.1.1.1.1.1.=.1.1.1.1.1.=.1.1.$.1.1.1.1.1.1.$.>.#.o.L l 6 7 ,.",
"[ 6 7 s k f L #.o.@.=.#.o.o.o.o.O.O.*.1.1.1.1.1.1.1.1.1.1.1.1.1.1.1.1.1.1.1.1.1.1.*.o.#. .m l 7 6 [ ",
"[ 6 6 s j j I O.o.o.#.#.@.#.o.o.#.#.:.=.1.1.1.1.1.1.1.1.1.1.1.1.1.1.1.1.1.=.1.=.1.#.o.o.} k s 6 7 [ ",
"] 6 6 s k k v #.o.o.o.=.1.1.1.1.1.1.=.1.1.1.1.1.1.1.1.1.1.1.1.1.1.1.1.=.=.#.#.#.#.#.#. .v j s 7 6 [ ",
",.6 6 5 k k k O.#.o.o.#.*.1.1.1.1.1.1.=.=.1.1.1.=.1.1.1.1.1.1.1.1.1.1.=.#.o.o.o.@.#.+.} j j e 6 7 ,.",
",.8 8 p j j k P $.#.#.#.*.$.$.=.1.1.=.$.$.$.$.$.=.=.1.1.1.1.1.1.1.1.=.$.O.O.o.o.O.O.L j j f 5 6 8 ] ",
"[ [ ,.%.8 7 p j j } #.#.O.k k C 1.1.+.b k k k k b =.1.1.1.1.1.=.1.1.C k v v v k k k j p 6 8 %.%.,.,.",
",.,.] ] 6 6 5 k k } o.o. .k j C 1.1.+.k k k k k b $.=.1.1.=.=.=.1.=.C k k j j k k k k p 6 6 z.] z.,.",
",.,.] ' 6 6 5 j k } #.#.+.k j B =.=. .b b k v k b =.=.1.=.=.=.=.=.=.{ C L v j k j k j p 8 8 ] z.,.,.",
",.,.[ / / / / 8 e k k b k k k k k v B #.o.O.o.o.o.#.#.=.B k k k k k O.o.#.n k k k t s ' ' / ] [ ,.,.",
",.[ [ ' / / h.6 6 e e d g k k j k j B #.o.o.o.o.o.o.o.#.C k k j k j O.o.o.n f s e 8 e ' ( ( ' ,.,.,.",
",.,.,.z.' / g.8 6 8 e e d k k k j k B #.o.o.#.o.#.#.o.O.b k j j k k O.o.O.c f s y 8 e ( ' ] ,.,.,.,.",
"&.[ ,.[ z./ g.E R R R R Y q q t d s s f z z n g j j j g j j g j h j l p p ! / / ~ ~ ~ / ] ,.,.,.,.,.",
"[ ,.,.,.z.' E E R R f.Y Y 7 7 e 4 e 4 r r t t t t 5 t t 5 5 5 5 t 5 t e r ! ~ R Q R ~ ' ' ,.,.,.,.,.",
"[ ,.,.,.z.] / ~ R R T f.F 8 8 e e e e e r e r e e e e e e 4 e e e e r e r ! ~ g.~ h.' ] [ ,.,.,.,.,.",
",.,.,.,.[ [ [ [ ' / ~ g.R Y Y Y R W W W W p.R W W W W G W W T R W W G W ~ ~ ' ] l.] ] ,.,.,.,.,.,.,.",
",.,.,.,.&.[ [ [ ] ' ' h.~ E E E Q Q Q Q Q Q E R R R R R R R R E R W R R ~ ' ] ,.,.,.,.,.,.,.,.,.,.,.",
",.,.,.,.&.,.,.,.,.,.,.[ ] ' ' ' / ' ' ( ( ( / / ~ ~ ~ ~ / / / / ~ ( ( ' ' ] ] ,.,.,.,.[ ,.,.,.,.,.,.",
",.,.[ ,.&.[ ,.,.,.,.,.,.,.,.,.,.,.,.,.,.,.,.,.[ ,.[ ,.] ] [ ,.,.,.%.,.,.] %.,.,.,.%.&.&.&.&.&.,.,.,."
};
